<svg xmlns="http://www.w3.org/2000/svg" width="682" height="886" viewBox="0 0 682 886" fill="none">
  <g filter="url(#filter0_d_2_1064)">
    <path d="M574.56 39.9694C593.214 39.9694 602.542 39.969 609.667 43.5993C615.934 46.7926 621.029 51.8887 624.222 58.1559C627.853 65.2809 627.853 74.6082 627.853 93.2624V819.373H619.526C619.526 811.095 612.815 804.385 604.538 804.384C596.26 804.384 589.549 811.095 589.548 819.373H576.226C576.226 811.095 569.515 804.384 561.237 804.384C552.959 804.385 546.249 811.095 546.249 819.373H532.925C532.925 811.095 526.215 804.385 517.937 804.384C509.659 804.384 502.949 811.095 502.949 819.373H489.626C489.625 811.095 482.914 804.384 474.636 804.384C466.359 804.385 459.648 811.095 459.648 819.373H446.325C446.325 811.095 439.614 804.384 431.337 804.384C423.059 804.385 416.348 811.095 416.348 819.373H403.025C403.025 811.095 396.314 804.385 388.037 804.384C379.759 804.384 373.048 811.095 373.047 819.373H359.724C359.724 811.095 353.014 804.384 344.736 804.384C336.458 804.385 329.748 811.095 329.748 819.373H316.424C316.424 811.095 309.714 804.385 301.436 804.384C293.158 804.384 286.448 811.095 286.448 819.373H273.125C273.124 811.095 266.413 804.384 258.135 804.384C249.858 804.385 243.147 811.095 243.147 819.373H229.824C229.824 811.095 223.113 804.384 214.836 804.384C206.558 804.384 199.847 811.095 199.847 819.373H186.524C186.524 811.095 179.813 804.385 171.536 804.384C163.258 804.384 156.547 811.095 156.546 819.373H143.223C143.223 811.095 136.513 804.384 128.235 804.384C119.957 804.385 113.247 811.095 113.247 819.373H99.9234C99.9233 811.095 93.2129 804.385 84.9351 804.384C76.6573 804.384 69.947 811.095 69.9469 819.373H53.2926V93.2624C53.2926 74.6085 53.2922 65.2808 56.9224 58.1559C60.1158 51.8887 65.2118 46.7926 71.4791 43.5993C78.604 39.9691 87.9316 39.9694 106.586 39.9694H574.56Z" fill="#25282E"/>
  </g>
  <defs>
    <filter id="filter0_d_2_1064" x="3.8147e-06" y="6.67572e-06" width="681.146" height="885.988" filterUnits="userSpaceOnUse" color-interpolation-filters="sRGB">
      <feFlood flood-opacity="0" result="BackgroundImageFix"/>
      <feColorMatrix in="SourceAlpha" type="matrix" values="0 0 0 0 0 0 0 0 0 0 0 0 0 0 0 0 0 0 127 0" result="hardAlpha"/>
      <feOffset dy="13.3231"/>
      <feGaussianBlur stdDeviation="26.6463"/>
      <feComposite in2="hardAlpha" operator="out"/>
      <feColorMatrix type="matrix" values="0 0 0 0 0 0 0 0 0 0 0 0 0 0 0 0 0 0 0.16 0"/>
      <feBlend mode="normal" in2="BackgroundImageFix" result="effect1_dropShadow_2_1064"/>
      <feBlend mode="normal" in="SourceGraphic" in2="effect1_dropShadow_2_1064" result="shape"/>
    </filter>
  </defs>
</svg>
