<svg width="1922" height="201" viewBox="0 0 1922 201" fill="none" xmlns="http://www.w3.org/2000/svg">
<path d="M1889.19 2.4536L1874.27 1M1889.19 2.4536H1844.99M1889.19 2.4536L1904.59 3.95515M1889.19 2.4536H1920.48M1874.27 1H1879.69L1885.07 1.00362L1890.32 1.01266L1895.41 1.03075L1900.29 1.05789L1904.89 1.1004L1909.16 1.1601L1913.13 1.23518L1916.53 1.3392L1919.63 1.46041L1920.48 1.50293V2.4536M1874.27 1H1830.77M1844.99 2.4536L1830.77 1M1844.99 2.4536H1800.79M1844.99 2.4536L1848.6 2.82356L1859.65 3.95425M1904.59 3.95515L1859.65 3.95425M1904.59 3.95515L1920.48 5.50283M1904.59 3.95515L1920.48 3.95425M1920.48 2.4536V3.95425M1830.77 1H1787.29M1787.29 1H1743.8M1787.29 1L1800.79 2.4536M1743.8 1H1700.31M1743.8 1L1756.59 2.4536M1800.79 2.4536H1756.59M1800.79 2.4536L1814.72 3.95425M1700.31 1H1656.83M1700.31 1L1712.39 2.4536M1756.59 2.4536H1712.39M1756.59 2.4536L1769.8 3.95425M1656.83 1H1613.33M1656.83 1L1668.19 2.4536M1712.39 2.4536H1668.19M1712.39 2.4536L1724.85 3.95425M1613.33 1H1569.84M1613.33 1L1623.99 2.4536M1668.19 2.4536H1623.99M1668.19 2.4536L1671.08 2.82356L1672.55 3.0099L1679.93 3.95425M1569.84 1H1526.36M1569.84 1L1579.79 2.4536M1623.99 2.4536H1579.79M1623.99 2.4536L1626.71 2.82356L1635 3.95425M1526.36 1H1482.87M1526.36 1L1535.59 2.4536M1579.79 2.4536H1535.59M1579.79 2.4536L1590.07 3.95425M1482.87 1H1439.37M1482.87 1L1491.39 2.4536M1535.59 2.4536H1491.39M1535.59 2.4536L1537.95 2.82447L1539.13 3.0099L1545.13 3.95425M1439.37 1H1395.89M1439.37 1L1447.19 2.4536M1491.39 2.4536H1447.19M1491.39 2.4536L1500.2 3.95425M1395.89 1H1352.4M1395.89 1L1402.99 2.4536M1447.19 2.4536H1402.99M1447.19 2.4536L1449.19 2.82447L1450.19 3.0108L1455.27 3.95425M1352.4 1H1308.91M1352.4 1L1353.97 1.3591L1356.37 1.90183L1358.79 2.4536M1402.99 2.4536H1358.79M1402.99 2.4536L1403.89 2.63813L1404.8 2.82447L1410.33 3.95515M1308.91 1H1265.42M1308.91 1L1310.31 1.3591L1314.59 2.4536M1358.79 2.4536H1314.59M1358.79 2.4536L1360.43 2.82356L1361.24 3.0099L1365.4 3.95425M1265.42 1H1221.93M1265.42 1L1270.39 2.4536M1314.59 2.4536H1270.39M1314.59 2.4536L1320.46 3.95425M1221.93 1H1178.44M1221.93 1L1223.51 1.53911L1225.12 2.08545L1225.65 2.26908L1226.19 2.4536M1270.39 2.4536H1226.19M1270.39 2.4536L1271.03 2.63904L1271.66 2.82537L1272.3 3.0108L1275.53 3.95425M1178.44 1H1134.96M1178.44 1L1179.76 1.53911L1180.21 1.72002L1180.65 1.90274L1182 2.4536M1226.19 2.4536H1182M1226.19 2.4536L1227.28 2.82356L1227.83 3.0099L1228.38 3.19805L1230.6 3.95425M1134.96 1H1091.47M1134.96 1L1137.8 2.4536M1182 2.4536H1137.8M1182 2.4536L1182.9 2.82356L1184.74 3.57434L1185.2 3.76429L1185.67 3.95425M1091.47 1L1091.73 1.1791L1091.99 1.3591L1093.33 2.26908L1093.6 2.4536M1091.47 1H1047.98M1137.8 2.4536H1093.6M1137.8 2.4536L1138.16 2.63904L1138.52 2.82537L1138.89 3.0108L1140.73 3.95425M1093.6 2.4536H1049.4M1093.6 2.4536L1095.8 3.95425M1047.98 1H1004.49M1047.98 1L1049.4 2.4536M1004.49 1H961M1004.49 1L1004.75 1.53911L1005.2 2.4527M1049.4 2.4536L1005.2 2.4527M1049.4 2.4536L1049.58 2.63813L1049.76 2.82447L1049.94 3.0099L1050.87 3.95425M961 1H917.512M961 1V2.4536M1005.2 2.4527L961 2.4536M1005.2 2.4527L1005.93 3.95425M917.512 1H874.021M917.512 1L917.248 1.53911L916.801 2.4527M961 2.4536L916.801 2.4527M961 2.4536V3.95425M874.021 1H830.533M874.021 1L872.601 2.4536M916.801 2.4527L872.601 2.4536M916.801 2.4527L916.067 3.95605M830.533 1L830.271 1.1791L830.008 1.3591L828.673 2.26908L828.403 2.4536M830.533 1H787.045M872.601 2.4536H828.403M872.601 2.4536L872.421 2.63813L872.24 2.82447L872.057 3.0099L871.505 3.57434L871.135 3.95425M828.403 2.4536H784.203M828.403 2.4536L826.201 3.95425M787.045 1H743.555M787.045 1L784.564 2.26908L784.203 2.4536M743.555 1H700.067M743.555 1L742.237 1.53911L741.795 1.72002L740.903 2.08545L740.455 2.26908L740.004 2.4536M784.203 2.4536H740.004M784.203 2.4536L783.841 2.63904L783.479 2.82537L783.113 3.0108L781.268 3.95425M700.067 1H656.577M700.067 1L698.485 1.53911L696.884 2.08545L696.345 2.26908L695.805 2.4536M740.004 2.4536H695.805M740.004 2.4536L739.099 2.82447L737.264 3.57524L736.335 3.95425M656.577 1H613.089M656.577 1L651.607 2.4536M695.805 2.4536H651.607M695.805 2.4536L694.719 2.82356L694.171 3.0099L693.623 3.19805L691.403 3.95425M613.089 1H569.6M613.089 1L611.687 1.3591L607.408 2.4536M651.607 2.4536L650.973 2.63813L646.469 3.95425M651.607 2.4536H607.408M569.6 1H526.111M569.6 1L563.208 2.4536M607.408 2.4536H563.208M607.408 2.4536L606.684 2.63904L601.537 3.95425M526.111 1H482.623M526.111 1L519.009 2.4536M563.208 2.4536H519.009M563.208 2.4536L561.577 2.82447L560.756 3.0108L556.604 3.95425M482.623 1H439.133M482.623 1L474.809 2.4536M519.009 2.4536H474.809M519.009 2.4536L518.104 2.63813L517.197 2.82447L511.671 3.95515M439.133 1H395.644M439.133 1L430.611 2.4536M474.809 2.4536H430.611M474.809 2.4536L472.817 2.82447L471.813 3.0099L466.737 3.95425M395.644 1H352.156M395.644 1L386.412 2.4536M430.611 2.4536H386.412M430.611 2.4536L429.525 2.63904L421.804 3.95425M352.156 1H308.668M352.156 1L342.212 2.4536M386.412 2.4536H342.212M386.412 2.4536L384.056 2.82447L382.871 3.0108L376.872 3.95425M308.668 1H265.177M308.668 1L298.013 2.4536M342.212 2.4536H298.013M342.212 2.4536L331.939 3.95515M265.177 1H221.689M265.177 1L253.813 2.4536M298.013 2.4536H253.813M298.013 2.4536L295.296 2.82447L287.005 3.95515M221.689 1H178.2M221.689 1L209.615 2.4536M253.813 2.4536H209.615M253.813 2.4536L250.916 2.82447L249.456 3.0108L242.073 3.95515M178.2 1H134.711M178.2 1L165.416 2.4536M209.615 2.4536H165.416M209.615 2.4536L197.14 3.95515M134.711 1H91.2227M134.711 1L121.217 2.4536M165.416 2.4536H121.217M165.416 2.4536L152.207 3.95515M91.2227 1H47.7333M91.2227 1L77.0187 2.4536M121.217 2.4536H77.0187M121.217 2.4536L107.273 3.95515M47.7333 1H42.3067L36.936 1.00362L31.676 1.01266L26.5827 1.03075L21.7093 1.05789L17.1093 1.1004L12.836 1.1601L8.86933 1.23518L5.46667 1.3392L2.368 1.46132L1.51733 1.50293V2.4527M47.7333 1L32.8187 2.4536M77.0187 2.4536H32.8187M77.0187 2.4536L73.3933 2.82356L62.34 3.95515H107.273M1.51733 2.4527L32.8187 2.4536M1.51733 2.4527V3.95425M32.8187 2.4536L17.408 3.95515M107.273 3.95515L92.86 5.50735M107.273 3.95515H152.207M152.207 3.95515L138.552 5.50645M152.207 3.95515H197.14M287.005 3.95515L275.627 5.50645M287.005 3.95515H331.939M287.005 3.95515H242.073M331.939 3.95515L321.319 5.50645M331.939 3.95515L376.872 3.95425M466.737 3.95425L458.393 5.50645M466.737 3.95425L511.671 3.95515M466.737 3.95425H421.804M511.671 3.95515L506.96 4.91849L504.084 5.50645M511.671 3.95515L556.604 3.95425M646.469 3.95425L641.159 5.50645M646.469 3.95425H691.403M646.469 3.95425H601.537M691.403 3.95425L688.576 4.91849L686.851 5.50645M691.403 3.95425H736.335M826.201 3.95425L825.639 4.33777L824.788 4.91849L824.213 5.30925L823.925 5.50645M826.201 3.95425H871.135M826.201 3.95425H781.268M871.135 3.95425L870.571 4.53044L869.809 5.30925L869.617 5.50645M871.135 3.95425L916.067 3.95605M1005.93 3.95425L1006.03 4.14691L1006.12 4.33868L1006.21 4.53135L1006.31 4.72492L1006.41 4.9194L1006.69 5.50645M1005.93 3.95425H1050.87M1005.93 3.95425H961M1050.87 3.95425L1051.43 4.53044L1052.19 5.30925L1052.38 5.50645M1050.87 3.95425H1095.8M1185.67 3.95425L1186.6 4.33777L1189.46 5.50645M1185.67 3.95425H1230.6M1185.67 3.95425H1140.73M1230.6 3.95425L1233.42 4.91849L1235.15 5.50645M1230.6 3.95425H1275.53M1365.4 3.95425L1371.36 5.30925L1372.23 5.50645M1365.4 3.95425L1410.33 3.95515M1365.4 3.95425H1320.46M1410.33 3.95515L1415.04 4.91849L1417.92 5.50645M1410.33 3.95515L1455.27 3.95425M1545.13 3.95425L1554.99 5.50645M1545.13 3.95425H1590.07M1545.13 3.95425H1500.2M1590.07 3.95425L1600.68 5.50645M1590.07 3.95425H1635M1724.85 3.95425L1737.76 5.50645M1724.85 3.95425H1679.93M1724.85 3.95425H1769.8M1769.8 3.95425L1783.45 5.50645M1769.8 3.95425H1814.72M1.36133 16.0444H1.51733M45.8493 16.0444L62.724 14.1268M45.8493 16.0444L28.3267 18.0362M45.8493 16.0444H96.6893L147.532 16.0435M45.8493 16.0444H1.516M62.724 14.1268H12.82M62.724 14.1268L78.988 12.2779M62.724 14.1268H112.627M12.82 14.1268L29.9867 12.2779M12.82 14.1268L1.51733 14.1259M12.82 14.1268L1.51733 15.3425M78.988 12.2779L94.6733 10.4941M78.988 12.2779L127.988 12.277M78.988 12.2779L29.988 12.277M1.51733 14.1259V15.3425M1.51733 14.1259V12.2761V10.4941M1.51733 15.3425V16.0426V18.0353V20.104M62.52 8.77366H109.809M62.52 8.77366L77.9507 7.11201M62.52 8.77366H15.2347M62.52 8.77366L46.544 10.4941M109.809 8.77366L124.427 7.11201M109.809 8.77366L94.6733 10.4941M109.809 8.77366H157.099M77.9507 7.11201H124.427M77.9507 7.11201L92.8587 5.50645M77.9507 7.11201H31.476M15.2347 8.77366L31.476 7.11201M15.2347 8.77366H1.51733M15.2347 8.77366L1.51733 10.1766M46.544 10.4941H94.6733M46.544 10.4941L29.988 12.277M46.544 10.4941H1.51733M124.427 7.11201H170.904M124.427 7.11201L138.552 5.50645M94.6733 10.4941L142.803 10.495M157.099 8.77366L170.904 7.11201M157.099 8.77366L142.803 10.495M157.099 8.77366H204.388M31.476 7.11201L47.1693 5.50645M31.476 7.11201H1.516M170.904 7.11201H217.38M170.904 7.11201L184.244 5.50735M138.552 5.50645L184.244 5.50735M138.552 5.50645L92.86 5.50735M1.02933 46.3177H1.51733M1.51733 46.3177H42.0533M1.51733 46.3177V43.1373M1.51733 46.3177V49.6573V52.2425M42.0533 46.3177L63.8133 43.1373M42.0533 46.3177L19.2133 49.6555M42.0533 46.3177H107.693M63.8133 43.1373L84.568 40.1053M63.8133 43.1373H127.899M63.8133 43.1373H1.51733M19.2133 49.6555H86.4827M19.2133 49.6555H1.51733M19.2133 49.6555L1.51733 52.2425M107.693 46.3177L127.899 43.1373M107.693 46.3177L86.4827 49.6555M107.693 46.3177H173.332M84.568 40.1053H21.9653M84.568 40.1053L104.383 37.2099M84.568 40.1053L147.171 40.1044M127.899 43.1373L147.171 40.1044M127.899 43.1373H191.984M1.51733 43.1373V42.894M21.9653 40.1053L43.196 37.209M21.9653 40.1053H1.51733M21.9653 40.1053L1.51733 42.894M43.196 37.209L63.4867 34.442M43.196 37.209L104.383 37.2099M1.51733 40.1053V42.894M1.51733 40.1053V37.209V34.7151M63.4867 34.442H123.321M63.4867 34.442L82.9 31.7934M63.4867 34.442H3.65333M123.321 34.442L141.441 31.7934M123.321 34.442L104.383 37.2099M123.321 34.442H183.156M82.9 31.7934H141.441M82.9 31.7934H24.36M82.9 31.7934L101.493 29.258M3.65333 34.442L24.36 31.7934M3.65333 34.442L1.51733 34.441M3.65333 34.442L1.51733 34.7151M141.441 31.7934L158.793 29.258M141.441 31.7934H199.981M104.383 37.2099H165.569M183.156 34.442L199.981 31.7934M183.156 34.442L165.569 37.2099M183.156 34.442H242.989M24.36 31.7934L44.1933 29.258M24.36 31.7934H1.51733M101.493 29.258H158.793M101.493 29.258H44.1933M101.493 29.258L119.313 26.8275M158.793 29.258L175.427 26.8275M158.793 29.258H216.095M199.981 31.7934L216.095 29.258M199.981 31.7934H258.521M136.411 24.4956H191.383M136.411 24.4956L152.827 22.2559M136.411 24.4956H81.4373M136.411 24.4956L119.313 26.8275M191.383 24.4956L206.704 22.2559M191.383 24.4956L175.427 26.8275M191.383 24.4956H246.356M152.827 22.2559H206.704M152.827 22.2559H98.948M152.827 22.2559L168.601 20.1049M81.4373 24.4956H26.4667M81.4373 24.4956L98.948 22.2559M81.4373 24.4956L63.2013 26.8275M119.313 26.8275H175.427M119.313 26.8275H63.2013M206.704 22.2559L221.428 20.1049M206.704 22.2559H260.583M175.427 26.8275H231.539M246.356 24.4956L260.583 22.2559M246.356 24.4956L231.539 26.8275M246.356 24.4956H301.328M98.948 22.2559H45.072M98.948 22.2559L115.775 20.1049M168.601 20.1049H221.428M168.601 20.1049H115.775M168.601 20.1049L183.772 18.0353M221.428 20.1049L235.588 18.0353M221.428 20.1049H274.255M260.583 22.2559L274.255 20.1049M260.583 22.2559H314.461M198.373 16.0435H249.216M198.373 16.0435L212.436 14.1259M198.373 16.0435H147.532M198.373 16.0435L183.772 18.0353M249.216 16.0435L262.34 14.1259M249.216 16.0435L235.588 18.0353M249.216 16.0435H300.057M212.436 14.1259H262.34M212.436 14.1259H162.532M212.436 14.1259L225.989 12.277M147.532 16.0435L162.532 14.1259M147.532 16.0435L131.959 18.0353H183.772M183.772 18.0353H235.588M262.34 14.1259L274.991 12.277M262.34 14.1259H312.244M235.588 18.0353H287.403M300.057 16.0435L312.244 14.1259M300.057 16.0435L287.403 18.0353M300.057 16.0435H350.899M162.532 14.1259H112.628M162.532 14.1259L176.989 12.277M225.989 12.277H274.991M225.989 12.277H176.989M225.989 12.277L239.061 10.4941M274.991 12.277L287.189 10.4941M274.991 12.277H323.991M312.244 14.1259L323.991 12.277M312.244 14.1259H362.149M251.675 8.77366H298.964M251.675 8.77366L263.856 7.11201M251.675 8.77366H204.388M251.675 8.77366L239.061 10.4941M298.964 8.77366L310.332 7.11201M298.964 8.77366L287.189 10.4941M298.964 8.77366H346.252M263.856 7.11201H310.332M263.856 7.11201L275.627 5.50645M263.856 7.11201H217.38M204.388 8.77366L217.38 7.11201M204.388 8.77366L190.932 10.4941M239.061 10.4941H287.189M239.061 10.4941H190.932M310.332 7.11201H356.809M310.332 7.11201L321.319 5.50645M287.189 10.4941H335.32M346.252 8.77366L356.809 7.11201M346.252 8.77366L335.32 10.4941M346.252 8.77366H393.54M275.627 5.50645H321.319M275.627 5.50645L229.935 5.50735M217.38 7.11201L229.935 5.50735M356.809 7.11201H403.285M356.809 7.11201L367.009 5.50645M321.319 5.50645H367.009M35.1453 101.45L65.772 95.184M35.1453 101.45L2.34933 108.16M35.1453 101.45H127.732M35.1453 101.45H1.51733M65.772 95.184L94.4373 89.3189M65.772 95.184H155.293M65.772 95.184H1.51733M2.34933 108.16L98.2147 108.159M2.34933 108.16L1.51733 108.159M2.34933 108.16L1.51733 108.329M1.51733 101.45V108.159M1.51733 101.45V95.184M94.4373 89.3189L121.323 83.8175L146.591 78.6471M94.4373 89.3189H181.093M94.4373 89.3189H7.78M155.293 95.184L181.093 89.3189M155.293 95.184L127.731 101.45M155.293 95.184L244.817 95.1831M1.51733 95.184V90.4831M65.1493 78.6489H146.591M65.1493 78.6489L91.32 73.7797M65.1493 78.6489L37.3547 83.8175H1.51733M65.1493 78.6471H1.51733M1.51733 78.6471V83.8175M1.51733 78.6471V75.6105V73.7797M146.591 78.6471L170.381 73.7806M146.591 78.6471H228.032M170.381 73.7806L91.32 73.7815M170.381 73.7806L192.824 69.1892M170.381 73.7806H249.444M228.032 78.6471L249.444 73.7806M228.032 78.6471L205.289 83.8184M228.032 78.6471L309.473 78.648M91.32 73.7815H12.2587L39.188 69.1892M91.32 73.7815L116.007 69.1892H192.824M192.824 69.1892L214.025 64.8519M192.824 69.1892L269.641 69.1883M249.444 73.7806L269.641 69.1883M249.444 73.7806H328.505M161.397 60.7461H234.089M161.397 60.7461L182.313 56.8566M161.397 60.7461H88.7067M161.397 60.7461L139.328 64.8519M234.089 60.7461L253.103 56.8575M234.089 60.7461L214.025 64.8519M234.089 60.7461L306.78 60.747L379.471 60.7452M182.313 56.8566L253.103 56.8575M182.313 56.8566L111.524 56.8575L88.7067 60.7461M182.313 56.8566L202.161 53.1651M88.7067 60.7461L16.0147 60.7452M88.7067 60.7461L64.6307 64.8519M139.328 64.8519H214.025M139.328 64.8519H64.6307M253.103 56.8575L271.148 53.1651M253.103 56.8575L323.892 56.8566M214.025 64.8519L288.723 64.851M202.161 53.1651H271.148M202.161 53.1651L133.177 53.1642M202.161 53.1651L221.024 49.6555M271.148 53.1651L288.295 49.6555M271.148 53.1651L340.132 53.1642M323.892 56.8566L340.132 53.1642M323.892 56.8566L306.78 60.7452L288.723 64.851M323.892 56.8566H394.683M238.971 46.3177H304.611M238.971 46.3177L256.068 43.1373M238.971 46.3177H173.332M238.971 46.3177L221.024 49.6555M304.611 46.3177L320.153 43.1373M304.611 46.3177L288.295 49.6555M304.611 46.3177H370.249M256.068 43.1373H320.153M256.068 43.1373H191.984M256.068 43.1373L272.375 40.1053M173.332 46.3177L191.984 43.1373M173.332 46.3177L153.753 49.6555H221.024M221.024 49.6555H288.295M320.153 43.1373L334.977 40.1053M320.153 43.1373H384.237M288.295 49.6555H355.565M370.249 46.3177L384.237 43.1373M370.249 46.3177L355.565 49.6555M370.249 46.3177H435.888M191.984 43.1373L209.772 40.1053M272.375 40.1053H334.977M272.375 40.1053H209.772M272.375 40.1053L287.944 37.2099M334.977 40.1053L349.131 37.2099M334.977 40.1053L397.58 40.1044M384.237 43.1373L397.58 40.1044M384.237 43.1373H448.323M302.824 34.441H362.659M302.824 34.441L317.061 31.7934M302.824 34.441L242.989 34.442M302.824 34.441L287.944 37.2099M362.659 34.441L375.601 31.7934M362.659 34.441L349.131 37.2099M362.659 34.441L422.492 34.442M317.061 31.7934H375.601M317.061 31.7934H258.521M317.061 31.7934L330.695 29.258M242.989 34.442L258.521 31.7934M242.989 34.442L226.756 37.209M287.944 37.2099H349.131M287.944 37.2099L226.756 37.209M375.601 31.7934L387.996 29.258M375.601 31.7934H434.141M349.131 37.2099H410.317M422.492 34.442L434.141 31.7934M422.492 34.442L410.317 37.2099M422.492 34.442H482.327M258.521 31.7934L273.395 29.258M330.695 29.258H387.996M330.695 29.258H273.395M330.695 29.258L343.764 26.8275M387.996 29.258L399.876 26.8275M387.996 29.258H445.296M434.141 31.7934L445.296 29.258M434.141 31.7934H492.68M356.301 24.4956H411.273M356.301 24.4956L368.339 22.2559M356.301 24.4956H301.328M356.301 24.4956L343.764 26.8275M411.273 24.4956L412.667 24.2106L422.217 22.2568M411.273 24.4956L399.876 26.8275M411.273 24.4956H466.247M368.339 22.2559L422.217 22.2568M368.339 22.2559H314.461M368.339 22.2559L379.908 20.1049M301.328 24.4956L314.461 22.2559M301.328 24.4956L287.651 26.8275M343.764 26.8275H399.876M343.764 26.8275H287.651M422.217 22.2568L432.735 20.1049M422.217 22.2568L476.096 22.2559M399.876 26.8275H455.988M466.247 24.4956L476.096 22.2559M466.247 24.4956L455.988 26.8275M466.247 24.4956H521.219M314.461 22.2559L327.081 20.1049M379.908 20.1049H432.735M379.908 20.1049H327.081M379.908 20.1049L391.033 18.0353M432.735 20.1049L441.605 18.2895L442.848 18.0353M432.735 20.1049H485.561M476.096 22.2559L485.561 20.1049M476.096 22.2559H529.975M401.74 16.0435H452.583M401.74 16.0435L412.053 14.1259M401.74 16.0435H350.899M401.74 16.0435L391.033 18.0353M452.583 16.0435L461.957 14.1259M452.583 16.0435L448.976 16.7816L442.848 18.0353M452.583 16.0435H503.424M412.053 14.1259H461.957M412.053 14.1259H362.149M412.053 14.1259L421.992 12.277M350.899 16.0435L360.765 14.361L362.149 14.1259M350.899 16.0435L339.217 18.0353M391.033 18.0353H442.848M391.033 18.0353H339.217M461.957 14.1259L470.993 12.277M461.957 14.1259H511.861M442.848 18.0353H494.663M503.424 16.0435L511.861 14.1259M503.424 16.0435L501.264 16.5347L494.663 18.0353M503.424 16.0435H554.267M362.149 14.1259L372.992 12.277M421.992 12.277H470.993M421.992 12.277H372.992M421.992 12.277L431.579 10.4941M470.993 12.277L479.707 10.4941M470.993 12.277H519.993M511.861 14.1259L519.993 12.277M511.861 14.1259H561.767M440.828 8.77366H488.117M440.828 8.77366L449.761 7.11201M440.828 8.77366H393.54M440.828 8.77366L431.579 10.4941M488.117 8.77366L494.235 7.52177L495.237 7.31644L496.239 7.11201M488.117 8.77366L479.707 10.4941M488.117 8.77366H535.405M449.761 7.11201H496.239M449.761 7.11201L458.393 5.50645M449.761 7.11201H403.285M393.54 8.77366L403.285 7.11201M393.54 8.77366L383.449 10.4941M431.579 10.4941H479.707M431.579 10.4941H383.449M496.239 7.11201H542.715M496.239 7.11201L504.084 5.50645M479.707 10.4941H527.836M535.405 8.77366L542.715 7.11201M535.405 8.77366L527.836 10.4941M535.405 8.77366H582.693M458.393 5.50645H504.084M458.393 5.50645H412.701M403.285 7.11201L412.701 5.50645M542.715 7.11201H589.191M542.715 7.11201L549.776 5.50645M504.084 5.50645H549.776M68.6907 172.826H196.164M68.6907 172.826L108.829 161.095M68.6907 172.826L24.584 185.717M68.6907 172.826H1.51733M196.164 172.826L230.568 161.095M196.164 172.826L158.359 185.717M196.164 172.826H323.636M108.829 161.095H230.568M108.829 161.095L145.512 150.373M108.829 161.095H1.51733M24.584 185.717H158.359M24.584 185.717L1.51733 192.46M24.584 185.717H1.51733M1.51733 172.826V185.717M1.51733 172.826V161.095M230.568 161.095L262.011 150.373M230.568 161.095H352.307M158.359 185.717L116.621 199.949M158.359 185.717H292.132M323.636 172.826L352.307 161.095M323.636 172.826L292.132 185.717M323.636 172.826H451.109M145.512 150.373H262.011M145.512 150.373H29.0133M145.512 150.373L179.167 140.536M1.51733 161.095V157.405M262.011 150.373L290.857 140.536M262.011 150.373H378.509M352.307 161.095L378.509 150.373M352.307 161.095H474.045M210.155 131.48H317.419M210.155 131.48L238.779 123.113M210.155 131.48H102.891M210.155 131.48L179.167 140.536M317.419 131.48L341.953 123.113M317.419 131.48L290.857 140.536M317.419 131.48H424.681M238.779 123.113H341.953M238.779 123.113H135.604M238.779 123.113L265.301 115.362M102.891 131.48L135.604 123.113M102.891 131.48L67.4773 140.536M102.891 131.48H1.51733M179.167 140.536H290.857M179.167 140.536H67.4773M341.953 123.113L364.687 115.362M341.953 123.113H445.128M290.857 140.536H402.548M424.681 131.48L445.128 123.113M424.681 131.48L402.548 140.536M424.681 131.48H531.945M135.604 123.113H32.4307M135.604 123.113L165.916 115.362M265.301 115.362H364.687M265.301 115.362H165.916M265.301 115.362L289.944 108.159M364.687 115.362L385.809 108.159M364.687 115.362H464.072M445.128 123.113L464.072 115.362M445.128 123.113H548.303M312.903 101.449H405.487M312.903 101.449L334.34 95.1831M312.903 101.449H220.316M312.903 101.449L289.944 108.159M405.487 101.449L423.863 95.1831M405.487 101.449L385.809 108.159M405.487 101.449H498.072M334.34 95.1831H423.863M334.34 95.1831H244.817M334.34 95.1831L354.405 89.318M220.316 101.449L127.731 101.45M220.316 101.449L244.817 95.1831M220.316 101.449L194.079 108.159M289.944 108.159H385.809M289.944 108.159H194.079M423.863 95.1831L441.063 89.318M423.863 95.1831H513.387M385.809 108.159H481.675M498.072 101.449L513.387 95.1831M498.072 101.449L481.675 108.159M498.072 101.449H590.659M244.817 95.1831L267.749 89.3189M354.405 89.318H441.063M354.405 89.318L267.749 89.3189M354.405 89.318L373.225 83.8193H457.193L541.161 83.8184M441.063 89.318L457.193 83.8175L472.355 78.648M441.063 89.318L527.719 89.3189M513.387 95.1831L527.719 89.3189M513.387 95.1831H602.909M390.913 78.648H472.355M390.913 78.648L407.568 73.7797M390.913 78.648H309.473M390.913 78.648L373.225 83.8175H289.257L309.473 78.648M472.355 78.648L486.629 73.7806M472.355 78.648L553.796 78.6471M407.568 73.7797L486.629 73.7806M407.568 73.7797L328.505 73.7806M407.568 73.7797L423.276 69.1883M309.473 78.648L328.505 73.7806M486.629 73.7806L500.095 69.1883M486.629 73.7806L565.691 73.7797M553.796 78.6471L565.691 73.7797M553.796 78.6471L541.161 83.8184M553.796 78.6471L635.236 78.648M423.276 69.1883H500.095M423.276 69.1883H346.459M423.276 69.1883L438.117 64.851M500.095 69.1883L512.816 64.851M500.095 69.1883H576.912M565.691 73.7797L576.912 69.1883M565.691 73.7797L644.753 73.7806M452.163 60.7452H524.853M452.163 60.7452L465.472 56.8557M452.163 60.7452H379.471M452.163 60.7452L438.117 64.851M524.853 60.7452L536.261 56.8566M524.853 60.7452L512.816 64.851M524.853 60.7452L597.545 60.7461M465.472 56.8557L536.261 56.8566M465.472 56.8557L394.683 56.8566M465.472 56.8557L478.103 53.1642M379.471 60.7452L394.683 56.8566M379.471 60.7452L363.421 64.8519M438.117 64.851H512.816M438.117 64.851L363.421 64.8519M536.261 56.8566L547.088 53.1642M536.261 56.8566L607.052 56.8557M512.816 64.851H587.513M597.545 60.7461L607.052 56.8557M597.545 60.7461L587.513 64.851M597.545 60.7461L670.236 60.7452M394.683 56.8566L409.119 53.1642M478.103 53.1642H547.088M478.103 53.1642H409.119M478.103 53.1642L490.107 49.6555M547.088 53.1642L557.376 49.6555M547.088 53.1642H616.073M607.052 56.8557L616.073 53.1642M607.052 56.8557L677.841 56.8566M501.528 46.3177H567.167M501.528 46.3177L512.408 43.1373M501.528 46.3177H435.888M501.528 46.3177L490.107 49.6555M567.167 46.3177L576.492 43.1373M567.167 46.3177L557.376 49.6555M567.167 46.3177H632.805M512.408 43.1373H576.492M512.408 43.1373H448.323M512.408 43.1373L522.784 40.1053M435.888 46.3177L448.323 43.1373M435.888 46.3177L422.836 49.6555M490.107 49.6555H557.376M490.107 49.6555H422.836M576.492 43.1373L585.387 40.1053M576.492 43.1373H640.576M557.376 49.6555H624.647M632.805 46.3177L640.576 43.1373M632.805 46.3177L624.647 49.6555M632.805 46.3177H698.444M448.323 43.1373L460.181 40.1044M522.784 40.1053H585.387M522.784 40.1053L460.181 40.1044M522.784 40.1053L532.692 37.208H593.879M585.387 40.1053L593.879 37.208M585.387 40.1053L647.988 40.1044M640.576 43.1373L645.251 41.2251L647.988 40.1044M640.576 43.1373H704.661M542.16 34.441H601.996M542.16 34.441L551.221 31.7934M542.16 34.441L482.327 34.442M542.16 34.441L532.692 37.2099L471.504 37.209M601.996 34.441L609.76 31.7934M601.996 34.441L593.879 37.2099M601.996 34.441L661.829 34.442M551.221 31.7934H609.76M551.221 31.7934H492.68M551.221 31.7934L559.897 29.258M482.327 34.442L492.68 31.7934M482.327 34.442L471.504 37.209M609.76 31.7934L617.197 29.258M609.76 31.7934H668.301M661.829 34.442L668.301 31.7934M661.829 34.442L660.167 35.1213L655.065 37.208M492.68 31.7934L502.596 29.2571M559.897 29.258H617.197M559.897 29.258L502.596 29.2571M559.897 29.258L568.212 26.8275M617.197 29.258L620.799 28.0287L624.325 26.8275M617.197 29.258L674.497 29.2571M668.301 31.7934L674.497 29.2571M668.301 31.7934H726.84M576.191 24.4956H631.165M576.191 24.4956L583.852 22.2559M576.191 24.4956H521.219M576.191 24.4956L568.212 26.8275M631.165 24.4956L630.324 24.7814L624.325 26.8275M631.165 24.4956L637.731 22.2559M631.165 24.4956H686.137M583.852 22.2559H637.731M583.852 22.2559H529.975M583.852 22.2559L591.215 20.1049M521.219 24.4956L529.975 22.2559M521.219 24.4956L512.101 26.8266M568.212 26.8275H624.325M568.212 26.8275L512.101 26.8266M624.325 26.8275L680.439 26.8266M637.731 22.2559L644.041 20.1049M637.731 22.2559H691.609M686.137 24.4956L691.609 22.2559M686.137 24.4956L680.439 26.8266M686.137 24.4956H741.109M529.975 22.2559L538.388 20.1049M591.215 20.1049H644.041M591.215 20.1049H538.388M591.215 20.1049L598.295 18.0353M644.041 20.1049L650.109 18.0353M644.041 20.1049L696.867 20.104M691.609 22.2559L696.867 20.104M691.609 22.2559H745.487M605.108 16.0435H655.949M605.108 16.0435L611.671 14.1259M605.108 16.0435H554.267M605.108 16.0435L598.295 18.0353M655.949 16.0435L661.575 14.1259M655.949 16.0435L653.785 16.7816L652.325 17.2791L650.109 18.0353M655.949 16.0435H706.791M611.671 14.1259H661.575M611.671 14.1259H561.767M611.671 14.1259L617.995 12.277M554.267 16.0435L561.767 14.1259M554.267 16.0435L546.479 18.0344M598.295 18.0353H650.109M598.295 18.0353L546.479 18.0344M661.575 14.1259L663.631 13.4248L664.987 12.9626L666.996 12.277M661.575 14.1259H711.479M650.109 18.0353H701.924M706.791 16.0435L707.98 15.5569L711.479 14.1259M706.791 16.0435L706.193 16.2877L705.592 16.5347L703.772 17.2791L703.157 17.5297L701.924 18.0353M706.791 16.0435H757.632M561.767 14.1259L568.995 12.277M617.995 12.277H666.996M617.995 12.277H568.995M617.995 12.277L622.591 10.9337L624.096 10.4941M666.996 12.277L669.633 11.3778L672.224 10.4941M666.996 12.277H715.997M711.479 14.1259L712.053 13.8907L712.624 13.6573L714.883 12.7329L715.997 12.277M711.479 14.1259H761.384M629.983 8.77366H677.269M629.983 8.77366L634.264 7.52177L635.667 7.11201M629.983 8.77366H582.693M629.983 8.77366L624.843 10.2752L624.096 10.4941M677.269 8.77366L680.941 7.52177L681.543 7.31644L682.143 7.11201M677.269 8.77366L674.769 9.62575L672.224 10.4941M677.269 8.77366H724.559M635.667 7.11201H682.143M635.667 7.11201L641.159 5.50645M635.667 7.11201H589.191M582.693 8.77366L589.191 7.11201M582.693 8.77366L575.965 10.4941M624.096 10.4941H672.224M624.096 10.4941H575.965M682.143 7.11201H728.619M682.143 7.11201L686.851 5.50645M672.224 10.4941H720.353M724.559 8.77366L728.619 7.11201M724.559 8.77366L720.353 10.4941M724.559 8.77366H771.847M641.159 5.50645H686.851M641.159 5.50645H595.468M589.191 7.11201L593.919 5.90264L595.468 5.50645M728.619 7.11201H775.095M728.619 7.11201L731.573 5.90264L732.543 5.50645M686.851 5.50645H732.543M578.581 172.826H706.055M578.581 172.826L595.784 161.095M578.581 172.826H451.109M578.581 172.826L559.679 185.717M706.055 172.826L717.523 161.095M706.055 172.826L693.453 185.717M706.055 172.826H833.528M595.784 161.095H717.523M595.784 161.095H474.045M595.784 161.095L611.505 150.373M451.109 172.826L474.045 161.095M451.109 172.826L425.905 185.717M559.679 185.717H693.453M559.679 185.717L538.811 199.949M559.679 185.717H425.905M717.523 161.095L728.004 150.373M717.523 161.095H839.261M693.453 185.717L679.54 199.949M693.453 185.717H827.227M833.528 172.826L839.261 161.095M833.528 172.826L827.227 185.717M833.528 172.826H961M474.045 161.095L495.007 150.373M611.505 150.373H728.004M611.505 150.373H495.007M611.505 150.373L625.928 140.536M728.004 150.373L737.62 140.536M728.004 150.373H844.501M839.261 161.095L844.501 150.373M839.261 161.095H961M639.209 131.48H746.472M639.209 131.48L651.477 123.113M639.209 131.48H531.945M639.209 131.48L625.928 140.536M746.472 131.48L754.651 123.113M746.472 131.48L737.62 140.536M746.472 131.48H853.737M651.477 123.113H754.651M651.477 123.113H548.303M651.477 123.113L662.844 115.362M531.945 131.48L548.303 123.113M531.945 131.48L514.239 140.536M625.928 140.536H737.62M625.928 140.536H514.239M754.651 123.113L762.229 115.362M754.651 123.113H857.825M737.62 140.536H849.309M853.737 131.48L857.825 123.113M853.737 131.48L849.309 140.536M853.737 131.48H961M548.303 123.113L563.459 115.362M662.844 115.362H762.229M662.844 115.362H563.459M662.844 115.362L673.405 108.159M762.229 115.362L769.271 108.159M762.229 115.362H861.615M857.825 123.113L861.615 115.362M857.825 123.113H961M683.244 101.449H775.829M683.244 101.449L692.432 95.1831M683.244 101.449H590.659M683.244 101.449L673.405 108.159M775.829 101.449L781.955 95.1831M775.829 101.449L769.271 108.159M775.829 101.449H868.415M692.432 95.1831H781.955M692.432 95.1831H602.909M692.432 95.1831L701.031 89.318M590.659 101.449L602.909 95.1831M590.659 101.449L577.54 108.159M673.405 108.159H769.271M673.405 108.159H577.54M781.955 95.1831L787.688 89.318M781.955 95.1831H871.477M769.271 108.159H865.135M868.415 101.449L871.477 95.1831M868.415 101.449L865.135 108.159M868.415 101.449H961M602.909 95.1831L614.375 89.3189M701.031 89.318H787.688M701.031 89.318L614.375 89.3189M701.031 89.318L709.097 83.8193H793.064L877.032 83.8184M787.688 89.318L793.064 83.8175L798.117 78.648M787.688 89.318L874.344 89.3189M871.477 95.1831L874.344 89.3189M871.477 95.1831H961M716.677 78.648H798.117M716.677 78.648L723.815 73.7797M716.677 78.648H635.236M716.677 78.648L709.097 83.8175H625.129L635.236 78.648M798.117 78.648L802.876 73.7806M798.117 78.648L879.559 78.6471M723.815 73.7797L802.876 73.7806M723.815 73.7797L644.753 73.7806M723.815 73.7797L730.547 69.1883M635.236 78.648L644.753 73.7806M802.876 73.7806L807.365 69.1883M802.876 73.7806L881.939 73.7797M879.559 78.6471L881.939 73.7797M879.559 78.6471L877.032 83.8184M879.559 78.6471L961 78.648M644.753 73.7806L653.729 69.1883M730.547 69.1883H807.365M730.547 69.1883H653.729M730.547 69.1883L736.908 64.851M807.365 69.1883L811.605 64.851M807.365 69.1883H884.183M881.939 73.7797L884.183 69.1883M881.939 73.7797L961 73.7806M742.927 60.7452H815.619M742.927 60.7452L748.631 56.8557M742.927 60.7452H670.236M742.927 60.7452L736.908 64.851M815.619 60.7452L819.42 56.8566M815.619 60.7452L811.605 64.851M815.619 60.7452L888.309 60.7461M748.631 56.8557L819.42 56.8566M748.631 56.8557L677.841 56.8566M748.631 56.8557L754.044 53.1642M670.236 60.7452L677.841 56.8566M670.236 60.7452L662.209 64.8519M736.908 64.851H811.605M736.908 64.851L662.209 64.8519M819.42 56.8566L823.029 53.1642M819.42 56.8566L890.211 56.8557M811.605 64.851H886.303M888.309 60.7461L890.211 56.8557M888.309 60.7461L886.303 64.851M888.309 60.7461L961 60.7452M677.841 56.8566L685.059 53.1642M754.044 53.1642H823.029M754.044 53.1642H685.059M754.044 53.1642L759.189 49.6555M823.029 53.1642L826.459 49.6555M823.029 53.1642H892.015M890.211 56.8557L892.015 53.1642M890.211 56.8557L961 56.8566M764.083 46.3177H829.721M764.083 46.3177L768.745 43.1373M764.083 46.3177H698.444M764.083 46.3177L759.189 49.6555M829.721 46.3177L832.831 43.1373M829.721 46.3177L826.459 49.6555M829.721 46.3177H895.361M768.745 43.1373H832.831M768.745 43.1373H704.661M768.745 43.1373L770.439 41.984L773.193 40.1053M698.444 46.3177L704.661 43.1373M698.444 46.3177L691.917 49.6555M759.189 49.6555H826.459M759.189 49.6555H691.917M832.831 43.1373L835.796 40.1053M832.831 43.1373H896.916M826.459 49.6555H893.729M895.361 46.3177L896.916 43.1373M895.361 46.3177L893.729 49.6555M895.361 46.3177H961M704.661 43.1373L710.591 40.1053M773.193 40.1053H835.796M773.193 40.1053H710.591M773.193 40.1053L777.439 37.209M835.796 40.1053L838.625 37.2099M835.796 40.1053L898.397 40.1044M896.916 43.1373L898.397 40.1044M896.916 43.1373H961M781.497 34.441H841.332M781.497 34.441L785.38 31.7934M781.497 34.441L721.663 34.442M781.497 34.441L778.472 36.5061L777.439 37.209M841.332 34.441L842.316 33.4352L843.92 31.7934M841.332 34.441L838.625 37.2099M841.332 34.441L901.167 34.442M785.38 31.7934L785.853 31.4705L789.099 29.258M785.38 31.7934H843.92M785.38 31.7934H726.84M721.663 34.442L726.84 31.7934M721.663 34.442L721 34.7803L718.988 35.8087L716.252 37.209M777.439 37.209L838.625 37.2099M777.439 37.209H716.252M843.92 31.7934L844.863 30.8301L845.172 30.5117L845.483 30.196L846.399 29.258M843.92 31.7934H902.46M838.625 37.2099H899.813M901.167 34.442L902.46 31.7934M901.167 34.442L899.813 37.2099M901.167 34.442H961M789.099 29.258H846.399M789.099 29.258L731.799 29.2571M789.099 29.258L792.663 26.8275M726.84 31.7934L731.799 29.2571M846.399 29.258L903.7 29.2571M902.46 31.7934L902.617 31.4696L903.7 29.2571M902.46 31.7934H961M796.081 24.4956H851.055M796.081 24.4956L797.74 23.3649L798.149 23.0845L798.556 22.8077L798.963 22.5309L799.365 22.2559M796.081 24.4956H741.109M796.081 24.4956L792.663 26.8275M851.055 24.4956L852.704 22.8077L852.975 22.5309L853.243 22.2559M851.055 24.4956L848.776 26.8275M851.055 24.4956H906.028M799.365 22.2559H853.243M799.365 22.2559H745.487M799.365 22.2559L801.352 20.9018L801.743 20.6341L802.52 20.1049M741.109 24.4956L744.409 22.8068L745.487 22.2559M741.109 24.4956L739.421 25.3576L737.707 26.2341L736.549 26.8275M792.663 26.8275H848.776M792.663 26.8275H736.549M853.243 22.2559L854.568 20.9018L854.829 20.6341L855.088 20.369L855.347 20.104M853.243 22.2559L907.123 22.2568M848.776 26.8275L847.599 28.0287L847.303 28.3336L846.399 29.2562M848.776 26.8275L904.887 26.8266M906.028 24.4956L907.123 22.2568M906.028 24.4956L905.605 25.3576L905.177 26.2341L904.887 26.8266M906.028 24.4956H961M745.487 22.2559L749.693 20.1049M802.52 20.1049L855.347 20.104M802.52 20.1049H749.693M802.52 20.1049L805.555 18.0353M855.347 20.104L857.369 18.0353M855.347 20.104L908.173 20.1049M907.123 22.2568L908.173 20.1049M907.123 22.2568L961 22.2559M808.475 16.0435H859.317M808.475 16.0435L811.288 14.1259M808.475 16.0435H757.632M808.475 16.0435L807.755 16.5347L806.663 17.2791L805.555 18.0353M859.317 16.0435L859.077 16.2877L857.617 17.782L857.369 18.0353M859.317 16.0435L861.192 14.1259M859.317 16.0435H910.159M811.288 14.1259H861.192M811.288 14.1259H761.384M811.288 14.1259L813.999 12.277M757.632 16.0435L760.921 14.361L761.384 14.1259M757.632 16.0435L757.155 16.2877L756.673 16.5347L756.191 16.7816L753.74 18.0344M805.555 18.0353H857.369M805.555 18.0353L753.74 18.0344M857.369 18.0353H909.185M861.192 14.1259L861.877 13.4248L862.103 13.1924L862.329 12.9626L862.999 12.277M861.192 14.1259H911.096M910.159 16.0435L910.865 14.598L910.98 14.361L911.096 14.1259M910.159 16.0435L909.185 18.0353M910.159 16.0435H961M761.384 14.1259L764.997 12.277M813.999 12.277H862.999M813.999 12.277H764.997M813.999 12.277L814.66 11.8247L814.989 11.6013L815.316 11.3778L815.644 11.1553L815.967 10.9337L816.291 10.7139L816.612 10.4941M862.999 12.277L863.22 12.0508L863.44 11.8247L863.879 11.3778L864.095 11.1553L864.312 10.9337L864.527 10.713L864.741 10.4941M862.999 12.277H912M911.096 14.1259L912 12.277M911.096 14.1259H961M819.136 8.77366H866.423M819.136 8.77366L820.971 7.52177L821.571 7.11201M819.136 8.77366H771.847M819.136 8.77366L818.199 9.41137L817.885 9.62575L817.568 9.84193L816.612 10.4941M866.423 8.77366L866.629 8.5629L867.039 8.1432L867.445 7.72801L868.047 7.11201M866.423 8.77366L865.589 9.62575L865.38 9.84193L864.955 10.2761L864.741 10.4941M866.423 8.77366H913.712M821.571 7.11201H868.047M821.571 7.11201L823.635 5.70454L823.925 5.50645M821.571 7.11201H775.095M771.847 8.77366L775.095 7.11201M771.847 8.77366L768.483 10.4941M816.612 10.4941H864.741M816.612 10.4941H768.483M868.047 7.11201L868.247 6.90849L868.445 6.70587L868.643 6.50325L868.839 6.30245L869.424 5.70454L869.617 5.50645M868.047 7.11201H914.524M864.741 10.4941H912.871M913.712 8.77366L914.524 7.11201M913.712 8.77366L912.871 10.4941M913.712 8.77366H961M823.925 5.50645H869.617M823.925 5.50645H778.233M775.095 7.11201L776.679 6.30245L777.848 5.70454L778.233 5.50645M869.617 5.50645H915.309M914.524 7.11201L914.623 6.90849L914.723 6.70587L914.821 6.50325L915.309 5.50645M914.524 7.11201H961M1088.47 172.826H1215.95M1088.47 172.826L1082.74 161.095M1088.47 172.826H961M1088.47 172.826L1094.77 185.717M1215.95 172.826L1204.48 161.095M1215.95 172.826L1228.55 185.717M1215.95 172.826H1343.41M1082.74 161.095H1204.48M1082.74 161.095H961M1082.74 161.095L1077.5 150.373M961 172.826V161.095M961 172.826V185.717M1094.77 185.717H1228.55M1094.77 185.717L1101.73 199.949M1094.77 185.717H961M1204.48 161.095L1194 150.373M1204.48 161.095H1326.22M1228.55 185.717L1242.46 199.949M1228.55 185.717H1362.32M1343.41 172.826L1326.22 161.095M1343.41 172.826L1362.32 185.717M1343.41 172.826H1470.89M961 161.095V150.373M1077.5 150.373H1194M1077.5 150.373H961M1077.5 150.373L1072.69 140.536M1194 150.373L1184.38 140.536M1194 150.373H1310.49M1326.22 161.095L1310.49 150.373M1326.22 161.095H1447.96M1068.26 131.48H1175.53M1068.26 131.48L1064.17 123.113M1068.26 131.48H961M1068.26 131.48L1072.69 140.536M1175.53 131.48L1167.35 123.113M1175.53 131.48L1184.38 140.536M1175.53 131.48H1282.79M1064.17 123.113H1167.35M1064.17 123.113H961M1064.17 123.113L1060.39 115.362M961 131.48V123.113M961 131.48V140.536M1072.69 140.536H1184.38M1072.69 140.536H961M1167.35 123.113L1159.77 115.362M1167.35 123.113H1270.52M1184.38 140.536H1296.07M1282.79 131.48L1270.52 123.113M1282.79 131.48L1296.07 140.536M1282.79 131.48H1390.05M961 123.113V115.362M1060.39 115.362H1159.77M1060.39 115.362H961M1060.39 115.362L1056.87 108.159M1159.77 115.362L1152.73 108.159M1159.77 115.362H1259.16M1270.52 123.113L1259.16 115.362M1270.52 123.113H1373.69M1053.59 101.449H1146.17M1053.59 101.449L1050.52 95.1831M1053.59 101.449H961M1053.59 101.449L1056.87 108.159M1146.17 101.449L1140.05 95.1831M1146.17 101.449L1152.73 108.159M1146.17 101.449H1238.76M1050.52 95.1831H1140.05M1050.52 95.1831H961M1050.52 95.1831L1047.66 89.318M961 101.449V95.1831M961 101.449V108.159M1056.87 108.159H1152.73M1056.87 108.159H961M1140.05 95.1831L1134.31 89.318M1140.05 95.1831H1229.57M1152.73 108.159H1248.59M1238.76 101.449L1229.57 95.1831M1238.76 101.449L1248.59 108.159M1238.76 101.449H1331.34M961 95.1831V89.3171M1047.66 89.318H1134.31M1047.66 89.318L961 89.3189M1047.66 89.318L1044.97 83.8193H1128.94L1212.9 83.8184M1134.31 89.318L1128.94 83.8175L1123.88 78.648M1134.31 89.318L1220.97 89.3189M1229.57 95.1831L1220.97 89.3189M1229.57 95.1831H1319.09M1042.44 78.648C1042.44 78.648 1092.08 78.648 1123.88 78.648M1042.44 78.648L1040.06 73.7797M1042.44 78.648H961M1042.44 78.648L1044.97 83.8175H961V78.648M1123.88 78.648L1119.12 73.7806M1123.88 78.648L1205.32 78.6471M1040.06 73.7797L1119.12 73.7806M1040.06 73.7797L961 73.7806M1040.06 73.7797L1037.82 69.1883M961 78.648V73.7806M1119.12 73.7806L1114.63 69.1883M1119.12 73.7806L1198.19 73.7797M1205.32 78.6471L1198.19 73.7797M1205.32 78.6471L1212.9 83.8184M1205.32 78.6471L1286.76 78.648M961 73.7806V69.1883M1037.82 69.1883H1114.63M1037.82 69.1883H961M1037.82 69.1883L1035.7 64.851M1114.63 69.1883L1110.39 64.851M1114.63 69.1883H1191.45M1198.19 73.7797L1191.45 69.1883M1198.19 73.7797L1277.25 73.7806M1033.69 60.7452H1106.38M1033.69 60.7452L1031.79 56.8557M1033.69 60.7452H961M1033.69 60.7452L1035.7 64.851M1106.38 60.7452L1102.58 56.8566M1106.38 60.7452L1110.39 64.851M1106.38 60.7452L1179.07 60.7461M1031.79 56.8557L1102.58 56.8566M1031.79 56.8557L961 56.8566M1031.79 56.8557L1029.99 53.1642M961 60.7452V56.8566M961 60.7452V64.8519M1035.7 64.851H1110.39M1035.7 64.851L961 64.8519M1102.58 56.8566L1098.97 53.1642M1102.58 56.8566L1173.37 56.8557M1110.39 64.851H1185.09M1179.07 60.7461L1173.37 56.8557M1179.07 60.7461L1185.09 64.851M1179.07 60.7461L1251.76 60.7452M961 56.8566V53.1642M1029.99 53.1642H1098.97M1029.99 53.1642H961M1029.99 53.1642L1028.48 50.0852L1028.27 49.6555M1098.97 53.1642L1095.54 49.6555M1098.97 53.1642H1167.96M1173.37 56.8557L1167.96 53.1642M1173.37 56.8557L1244.16 56.8566M1026.64 46.3177H1092.28M1026.64 46.3177L1025.08 43.1373M1026.64 46.3177H961M1026.64 46.3177L1028.27 49.6555M1092.28 46.3177L1089.17 43.1373M1092.28 46.3177L1095.54 49.6555M1092.28 46.3177H1157.92M1025.08 43.1373H1089.17M1025.08 43.1373H961M1025.08 43.1373L1023.6 40.1053M961 46.3177V43.1373M961 46.3177V49.6555M1028.27 49.6555H1095.54M1028.27 49.6555H961M1089.17 43.1373L1086.2 40.1053M1089.17 43.1373H1153.25M1095.54 49.6555H1162.81M1157.92 46.3177L1153.25 43.1373M1157.92 46.3177L1162.81 49.6555M1157.92 46.3177H1223.56M961 43.1373V40.1044M1023.6 40.1053H1086.2M1023.6 40.1053L961 40.1044M1023.6 40.1053L1022.19 37.208H1083.37M1086.2 40.1053L1083.37 37.208M1086.2 40.1053L1148.81 40.1044M1153.25 43.1373L1152.12 42.3658L1148.81 40.1044M1153.25 43.1373H1217.34M1020.83 34.441H1080.67M1020.83 34.441L1019.54 31.7934M1020.83 34.441L961 34.442M1020.83 34.441L1022.19 37.2099L961 37.209M1080.67 34.441L1078.4 32.1182L1078.08 31.7934M1080.67 34.441L1083.37 37.2099M1080.67 34.441L1140.5 34.442M1019.54 31.7934L1019.38 31.4705L1018.3 29.258M1019.54 31.7934H1078.08M1019.54 31.7934H961M961 34.442V31.7934M961 34.442V37.209M1078.08 31.7934L1077.14 30.8301L1076.83 30.5117L1076.52 30.196L1075.6 29.258M1078.08 31.7934H1136.62M1140.5 34.442L1136.62 31.7934M1140.5 34.442L1143.53 36.5052L1144.56 37.208M1018.3 29.258H1075.6M1018.3 29.258L961 29.2571M1018.3 29.258L1018 28.6393L1017.41 27.4245L1017.11 26.8275M961 31.7934V29.2571M1075.6 29.258L1132.9 29.2571M1136.62 31.7934L1132.9 29.2571M1136.62 31.7934H1195.16M1015.97 24.4956H1070.95M1015.97 24.4956L1014.88 22.2559M1015.97 24.4956H961M1015.97 24.4956L1016.39 25.3585L1016.54 25.6489L1016.68 25.941L1016.97 26.5299L1017.11 26.8275M1070.95 24.4956L1069.3 22.8077L1068.76 22.2559M1070.95 24.4956L1073.22 26.8275M1070.95 24.4956H1125.92M1014.88 22.2559H1068.76M1014.88 22.2559H961M1014.88 22.2559L1013.83 20.1049M961 24.4956V22.2559M961 24.4956V26.8266M1017.11 26.8275H1073.22M1017.11 26.8275L961 26.8266M1068.76 22.2559L1067.43 20.9018L1067.17 20.6341L1066.91 20.369L1066.65 20.104M1068.76 22.2559L1122.63 22.2568M1073.22 26.8275L1074.4 28.0287L1074.7 28.3336L1075.6 29.2562M1073.22 26.8275L1129.34 26.8266M1125.92 24.4956L1123.85 23.0854L1123.44 22.8077L1123.04 22.5309L1122.63 22.2568M1125.92 24.4956L1128.9 26.5299L1129.34 26.8266M1125.92 24.4956H1180.89M961 22.2559V20.1049M1013.83 20.1049L1066.65 20.104M1013.83 20.1049H961M1013.83 20.1049L1012.81 18.0353M1066.65 20.104L1064.63 18.0353M1066.65 20.104L1119.48 20.1049M1122.63 22.2568L1121.04 21.1705L1120.65 20.9018L1120.26 20.6341L1119.48 20.1049M1122.63 22.2568L1176.51 22.2559M1011.84 16.0435H1062.68M1011.84 16.0435L1010.9 14.1259M1011.84 16.0435H961M1011.84 16.0435L1012.81 18.0353M1062.68 16.0435L1062.92 16.2877L1064.38 17.782L1064.63 18.0353M1062.68 16.0435L1060.81 14.1259M1062.68 16.0435H1113.53M1010.9 14.1259H1060.81M1010.9 14.1259H961M1010.9 14.1259L1010 12.277M961 16.0435V14.1259M961 16.0435V18.0344M1012.81 18.0353H1064.63M1012.81 18.0353L961 18.0344M1064.63 18.0353H1116.45M1060.81 14.1259L1060.12 13.4248L1059.9 13.1924L1059.67 12.9626L1059 12.277M1060.81 14.1259H1110.71M1113.53 16.0435L1110.71 14.1259M1113.53 16.0435L1114.25 16.5347L1115.34 17.2791L1116.45 18.0353M1113.53 16.0435H1164.37M961 14.1259V12.277M1010 12.277H1059M1010 12.277H961M1010 12.277L1009.13 10.4941M1059 12.277L1058.78 12.0508L1058.12 11.3778L1057.91 11.1553L1057.69 10.9337L1057.47 10.713L1057.26 10.4941M1059 12.277H1108M1110.71 14.1259L1108 12.277M1110.71 14.1259H1160.62M1008.29 8.77366H1055.58M1008.29 8.77366L1007.48 7.11201M1008.29 8.77366H961M1008.29 8.77366L1009.13 10.4941M1055.58 8.77366L1055.37 8.5629L1054.96 8.1432L1054.76 7.93515L1054.35 7.52177L1054.15 7.31644L1053.95 7.11201M1055.58 8.77366L1056.41 9.62575L1056.62 9.84193L1057.05 10.2761L1057.26 10.4941M1055.58 8.77366H1102.87M1007.48 7.11201L1007.38 6.90849L1007.28 6.70587L1007.18 6.50325L1006.69 5.50645M1007.48 7.11201H1053.95M1007.48 7.11201H961M961 8.77366V7.11201M961 8.77366V10.4941M1009.13 10.4941H1057.26M1009.13 10.4941H961M1053.95 7.11201H1100.43M1053.95 7.11201L1053.55 6.70497L1053.36 6.50325L1053.16 6.30245L1052.58 5.70454L1052.38 5.50645M1057.26 10.4941H1105.39M1102.87 8.77366L1101.03 7.52177L1100.43 7.11201M1102.87 8.77366L1104.43 9.84103L1105.39 10.4941M1102.87 8.77366H1150.15M1006.69 5.50645H1052.38M1006.69 5.50645L961 5.50735M961 7.11201V5.50735M1100.43 7.11201H1146.91M1100.43 7.11201L1098.66 5.90264L1098.07 5.50645M1052.38 5.50645H1098.07M1598.36 172.826H1725.84M1598.36 172.826L1569.69 161.095M1598.36 172.826H1470.89M1598.36 172.826L1629.87 185.717M1725.84 172.826L1691.43 161.095M1725.84 172.826L1763.64 185.717M1725.84 172.826H1853.31M1569.69 161.095H1691.43M1569.69 161.095H1447.96M1569.69 161.095L1543.49 150.373M1470.89 172.826L1447.96 161.095M1470.89 172.826L1496.09 185.717M1629.87 185.717H1763.64M1629.87 185.717L1664.65 199.949M1629.87 185.717H1496.09M1691.43 161.095L1659.99 150.373M1691.43 161.095H1813.17M1763.64 185.717L1805.37 199.949M1763.64 185.717H1897.41M1853.31 172.826L1813.17 161.095M1853.31 172.826L1897.41 185.717M1853.31 172.826H1920.48M1447.96 161.095L1426.99 150.373M1543.49 150.373H1659.99M1543.49 150.373H1426.99M1543.49 150.373L1519.45 140.536M1659.99 150.373L1631.15 140.536M1659.99 150.373H1776.49M1813.17 161.095L1776.49 150.373M1813.17 161.095H1920.48M1497.32 131.48H1604.59M1497.32 131.48L1476.87 123.113M1497.32 131.48H1390.05M1497.32 131.48L1519.45 140.536M1604.59 131.48L1580.05 123.113M1604.59 131.48L1631.15 140.536M1604.59 131.48H1711.84M1476.87 123.113H1580.05M1476.87 123.113H1373.69M1476.87 123.113L1457.93 115.362M1390.05 131.48L1373.69 123.113M1390.05 131.48L1407.76 140.536M1519.45 140.536H1631.15M1519.45 140.536H1407.76M1580.05 123.113L1557.31 115.362M1580.05 123.113H1683.23M1631.15 140.536H1742.83M1711.84 131.48L1683.23 123.113M1711.84 131.48L1742.83 140.536M1711.84 131.48H1819.11M1373.69 123.113L1358.55 115.362M1457.93 115.362H1557.31M1457.93 115.362H1358.55M1457.93 115.362L1440.32 108.159M1557.31 115.362L1536.19 108.159M1557.31 115.362H1656.69M1683.23 123.113L1656.69 115.362M1683.23 123.113L1786.4 123.114M1423.93 101.449H1516.51M1423.93 101.449L1408.61 95.1831M1423.93 101.449H1331.34M1423.93 101.449L1440.32 108.159M1516.51 101.449L1498.13 95.1831M1516.51 101.449L1536.19 108.159M1516.51 101.449H1609.09M1408.61 95.1831H1498.13M1408.61 95.1831H1319.09M1408.61 95.1831L1394.28 89.318M1331.34 101.449L1319.09 95.1831M1331.34 101.449L1344.47 108.159M1440.32 108.159H1536.19M1440.32 108.159H1344.47M1498.13 95.1831L1480.93 89.318M1498.13 95.1831H1587.65M1536.19 108.159H1632.05M1609.09 101.449L1587.65 95.1831M1609.09 101.449L1632.05 108.159M1609.09 101.449L1701.68 101.45M1319.09 95.1831L1307.63 89.318M1394.28 89.318H1480.93M1394.28 89.318H1307.63M1394.28 89.318L1380.84 83.8175M1480.93 89.318L1464.81 83.8175M1480.93 89.318H1567.6M1587.65 95.1831L1567.6 89.318M1587.65 95.1831L1677.19 95.184M1368.2 78.648H1449.64M1368.2 78.648L1356.31 73.7797M1368.2 78.648H1286.76M1368.2 78.648L1380.84 83.8175M1449.64 78.648L1435.37 73.7806M1449.64 78.648L1464.81 83.8175M1449.64 78.648L1531.09 78.6471M1356.31 73.7797L1435.37 73.7806M1356.31 73.7797L1277.25 73.7806M1356.31 73.7797L1345.09 69.1883M1286.76 78.648L1277.25 73.7806M1286.76 78.648L1296.87 83.8175H1380.84M1380.84 83.8175H1464.81M1435.37 73.7806L1421.91 69.1883M1435.37 73.7806L1514.43 73.7797M1464.81 83.8175H1548.77M1531.09 78.6471L1514.43 73.7797M1531.09 78.6471L1548.77 83.8175M1531.09 78.6471H1612.53M1277.25 73.7806L1268.27 69.1883M1345.09 69.1883H1421.91M1345.09 69.1883H1268.27M1345.09 69.1883L1334.49 64.851M1421.91 69.1883L1409.19 64.851M1421.91 69.1883H1498.72M1514.43 73.7797L1498.72 69.1883M1514.43 73.7797H1593.49L1575.55 69.1883M1324.45 60.7452H1397.15M1324.45 60.7452L1314.95 56.8557M1324.45 60.7452H1251.76M1324.45 60.7452L1334.49 64.851M1397.15 60.7452L1385.73 56.8566M1397.15 60.7452L1409.19 64.851M1397.15 60.7452L1469.84 60.7461M1314.95 56.8557L1385.73 56.8566M1314.95 56.8557L1244.16 56.8566M1314.95 56.8557L1305.93 53.1642M1251.76 60.7452L1249.82 59.7538L1244.16 56.8566M1251.76 60.7452L1259.79 64.851M1334.49 64.851H1409.19M1334.49 64.851H1259.79M1385.73 56.8566L1374.91 53.1642M1385.73 56.8566L1456.53 56.8557M1409.19 64.851H1483.88M1469.84 60.7461L1456.53 56.8557M1469.84 60.7461L1483.88 64.851M1469.84 60.7461H1542.53M1244.16 56.8566L1236.94 53.1642M1305.93 53.1642H1374.91M1305.93 53.1642H1236.94M1305.93 53.1642L1297.35 49.6555M1374.91 53.1642L1364.63 49.6555M1374.91 53.1642H1443.89M1456.53 56.8557L1443.89 53.1642M1456.53 56.8557H1527.32L1512.88 53.1642M1289.19 46.3177H1354.84M1289.19 46.3177L1281.42 43.1373M1289.19 46.3177H1223.56M1289.19 46.3177L1297.35 49.6555M1354.84 46.3177L1345.51 43.1373M1354.84 46.3177L1364.63 49.6555M1354.84 46.3177H1420.47M1281.42 43.1373H1345.51M1281.42 43.1373H1217.34M1281.42 43.1373L1274.01 40.1053M1223.56 46.3177L1217.34 43.1373M1223.56 46.3177L1230.08 49.6555M1297.35 49.6555H1364.63M1297.35 49.6555H1230.08M1345.51 43.1373L1336.61 40.1053M1345.51 43.1373H1409.59M1364.63 49.6555H1431.89M1420.47 46.3177L1409.59 43.1373M1420.47 46.3177L1431.89 49.6555M1420.47 46.3177H1486.11M1217.34 43.1373L1211.41 40.1053M1274.01 40.1053H1336.61M1274.01 40.1053H1211.41M1274.01 40.1053L1266.93 37.209M1336.61 40.1053L1328.12 37.2099M1336.61 40.1053L1399.21 40.1044M1409.59 43.1373L1399.21 40.1044M1409.59 43.1373H1473.68M1260.17 34.441L1261 34.7812L1261.83 35.1222L1266.93 37.209M1260.17 34.441H1320.01M1260.17 34.441L1253.7 31.7934M1260.17 34.441L1200.34 34.442M1266.93 37.209L1328.12 37.2099M1266.93 37.209H1205.75M1320.01 34.441L1312.24 31.7934M1320.01 34.441L1328.12 37.2099M1320.01 34.441L1379.84 34.442M1253.7 31.7934H1312.24M1253.7 31.7934H1195.16M1253.7 31.7934L1247.5 29.258M1200.34 34.442L1195.16 31.7934M1200.34 34.442L1203.01 35.8087L1205.75 37.209M1312.24 31.7934L1304.8 29.258M1312.24 31.7934H1370.77M1328.12 37.2099H1389.31M1379.84 34.442L1370.77 31.7934M1379.84 34.442L1389.31 37.2099M1379.84 34.442H1439.67M1195.16 31.7934L1190.2 29.258M1247.5 29.258H1304.8M1247.5 29.258H1190.2M1247.5 29.258L1245.99 28.6402L1241.56 26.8275M1304.8 29.258L1302.09 28.3345L1301.2 28.0296L1297.67 26.8275M1304.8 29.258H1362.11M1370.77 31.7934L1362.11 29.258M1370.77 31.7934H1429.32M1235.86 24.4956H1290.84M1235.86 24.4956L1230.39 22.2559M1235.86 24.4956H1180.89M1235.86 24.4956L1241.56 26.8275M1290.84 24.4956L1286.7 23.0845L1284.27 22.2559M1290.84 24.4956L1297.67 26.8275M1290.84 24.4956H1345.81M1230.39 22.2559H1284.27M1230.39 22.2559H1176.51M1230.39 22.2559L1225.78 20.369L1225.13 20.104M1180.89 24.4956L1177.59 22.8068L1176.51 22.2559M1180.89 24.4956L1182.58 25.3576L1185.45 26.8275M1241.56 26.8275H1297.67M1241.56 26.8275H1185.45M1284.27 22.2559L1277.96 20.104M1284.27 22.2559L1338.15 22.2568M1297.67 26.8275H1353.79M1345.81 24.4956L1338.15 22.2568M1345.81 24.4956L1353.79 26.8275M1345.81 24.4956H1400.79M1176.51 22.2559L1172.31 20.1049M1225.13 20.104H1277.96M1225.13 20.104L1172.31 20.1049M1225.13 20.104L1220.08 18.0353M1277.96 20.104L1271.89 18.0353M1277.96 20.104L1330.79 20.1049M1338.15 22.2568L1333.51 20.9018L1332.6 20.6341L1330.79 20.1049M1338.15 22.2568L1392.03 22.2559M1215.21 16.0435H1266.05M1215.21 16.0435L1214.02 15.5569L1210.52 14.1259M1215.21 16.0435H1164.37M1215.21 16.0435L1216.41 16.5347L1218.84 17.5297L1220.08 18.0353M1266.05 16.0435L1260.43 14.1259M1266.05 16.0435L1268.21 16.7816L1269.67 17.2791L1271.89 18.0353M1266.05 16.0435H1316.89M1210.52 14.1259H1260.43M1210.52 14.1259H1160.62M1210.52 14.1259L1207.12 12.7329L1206 12.277M1164.37 16.0435L1161.08 14.361L1160.62 14.1259M1164.37 16.0435L1164.85 16.2877L1165.33 16.5347L1165.81 16.7816L1168.26 18.0353M1220.08 18.0353H1271.89M1220.08 18.0353H1168.26M1260.43 14.1259L1258.37 13.4248L1257.01 12.9626L1255 12.277M1260.43 14.1259H1310.33M1271.89 18.0353H1323.71M1316.89 16.0435L1310.33 14.1259M1316.89 16.0435L1321.12 17.2791L1321.98 17.5297L1323.71 18.0353M1316.89 16.0435H1367.73M1160.62 14.1259L1157 12.277M1206 12.277H1255M1206 12.277H1157M1206 12.277L1201.65 10.4941M1255 12.277L1252.37 11.3778L1251.71 11.1544L1249.78 10.4941M1255 12.277H1304.01M1310.33 14.1259L1304.01 12.277M1310.33 14.1259H1360.24M1197.44 8.77366H1244.73M1197.44 8.77366L1194.89 7.72801L1193.38 7.11201M1197.44 8.77366H1150.15M1197.44 8.77366L1201.65 10.4941M1244.73 8.77366L1241.06 7.52177L1240.46 7.31644L1239.86 7.11201M1244.73 8.77366L1247.23 9.62575L1249.78 10.4941M1244.73 8.77366H1292.02M1193.38 7.11201H1239.86M1193.38 7.11201L1191.4 6.30245L1190.43 5.90264L1189.94 5.70364L1189.46 5.50645M1193.38 7.11201H1146.91M1150.15 8.77366L1147.71 7.52177L1146.91 7.11201M1150.15 8.77366L1153.52 10.4941M1201.65 10.4941H1249.78M1201.65 10.4941H1153.52M1239.86 7.11201H1286.33M1239.86 7.11201L1235.15 5.50645M1249.78 10.4941H1297.91M1292.02 8.77366L1287.74 7.52177L1286.33 7.11201M1292.02 8.77366L1297.16 10.2752L1297.91 10.4941M1292.02 8.77366H1339.31M1189.46 5.50645H1235.15M1189.46 5.50645H1143.77M1146.91 7.11201L1145.32 6.30245L1144.15 5.70454L1143.77 5.50645M1286.33 7.11201H1332.81M1286.33 7.11201L1280.84 5.50645M1235.15 5.50645H1280.84M1889.57 123.114H1786.4M1889.57 123.114L1855.47 115.363M1889.57 123.114H1920.48M1889.57 123.114L1920.48 130.141M1786.4 123.114L1756.08 115.362M1786.4 123.114L1819.11 131.48M1855.47 115.363L1823.79 108.16M1855.47 115.363L1756.08 115.362M1855.47 115.363L1920.48 115.362M1920.48 123.114V115.362M1920.48 123.114V130.141M1920.48 130.141V131.48M1794.27 101.45H1886.85M1794.27 101.45L1766.71 95.184M1794.27 101.45H1701.68M1794.27 101.45L1823.79 108.16M1886.85 101.45L1856.23 95.184M1886.85 101.45L1919.65 108.16M1886.85 101.45H1920.48M1766.71 95.184H1856.23M1766.71 95.184H1677.19M1766.71 95.184L1740.91 89.3189M1701.68 101.45L1677.19 95.184M1701.68 101.45L1727.92 108.159M1823.79 108.16H1919.65M1823.79 108.16L1727.92 108.159M1856.23 95.184L1827.56 89.3189M1856.23 95.184H1920.48M1919.65 108.16L1920.48 108.159M1919.65 108.16L1920.48 108.329M1920.48 101.45V95.184M1920.48 101.45V108.159M1677.19 95.184L1654.25 89.318M1740.91 89.3189H1827.56M1740.91 89.3189L1654.25 89.318M1740.91 89.3189L1716.71 83.8184M1827.56 89.3189L1800.68 83.8184M1827.56 89.3189L1914.21 89.318M1920.48 95.184V90.4831M1693.97 78.6489H1775.41M1693.97 78.6489L1672.56 73.7806M1693.97 78.6489H1612.53M1693.97 78.6489L1716.71 83.8184M1775.41 78.6489L1751.61 73.7815M1775.41 78.6489L1800.68 83.8184M1775.41 78.6489L1856.85 78.648M1672.56 73.7806L1751.61 73.7815M1672.56 73.7806L1593.49 73.7815L1612.53 78.6471M1672.56 73.7806L1652.36 69.1892M1716.71 83.8184H1800.68M1716.71 83.8184H1632.75M1751.61 73.7815L1729.17 69.1892M1751.61 73.7815L1830.68 73.7806M1800.68 83.8184L1884.64 83.8175M1856.85 78.648L1830.68 73.7806M1856.85 78.648L1884.64 83.8175M1856.85 78.648L1920.48 78.6471M1652.36 69.1892H1729.17M1652.36 69.1892L1575.55 69.1883M1652.36 69.1892L1633.28 64.8519M1729.17 69.1892L1707.97 64.8519M1729.17 69.1892L1806 69.1883M1830.68 73.7806L1806 69.1883M1830.68 73.7806L1909.75 73.7797M1615.21 60.7461H1687.91M1615.21 60.7461L1598.11 56.8566M1615.21 60.7461H1542.53M1615.21 60.7461L1633.28 64.8519M1687.91 60.7461L1668.89 56.8575M1687.91 60.7461L1707.97 64.8519M1687.91 60.7461L1760.6 60.747M1598.11 56.8566L1668.89 56.8575M1598.11 56.8566L1527.32 56.8575L1542.53 60.7461M1598.11 56.8566L1581.87 53.1651M1542.53 60.7461L1558.57 64.851M1633.28 64.8519H1707.97M1633.28 64.8519L1558.57 64.851M1668.89 56.8575L1650.85 53.1651M1668.89 56.8575L1739.69 56.8566M1707.97 64.8519L1782.67 64.851M1760.6 60.747L1782.67 64.851M1760.6 60.747L1833.29 60.7461M1581.87 53.1651H1650.85M1581.87 53.1651L1512.88 53.1642M1581.87 53.1651L1566.44 49.6555M1650.85 53.1651L1633.71 49.6555M1650.85 53.1651L1719.84 53.1642M1739.69 56.8566L1719.84 53.1642M1739.69 56.8566L1760.6 60.7452M1739.69 56.8566H1810.48M1551.75 46.3177H1617.39M1551.75 46.3177L1537.76 43.1373M1551.75 46.3177H1486.11M1551.75 46.3177L1566.44 49.6555M1617.39 46.3177L1601.85 43.1373M1617.39 46.3177L1633.71 49.6555M1617.39 46.3177H1683.03M1537.76 43.1373H1601.85M1537.76 43.1373H1473.68M1537.76 43.1373L1524.43 40.1053M1486.11 46.3177L1473.68 43.1373M1486.11 46.3177L1499.16 49.6564M1566.44 49.6555H1633.71M1566.44 49.6555L1499.16 49.6564M1601.85 43.1373L1587.03 40.1053M1601.85 43.1373H1665.93M1633.71 49.6555H1700.97M1683.03 46.3177L1665.93 43.1373M1683.03 46.3177L1700.97 49.6555M1683.03 46.3177H1748.67M1473.68 43.1373L1461.81 40.1053M1524.43 40.1053H1587.03M1524.43 40.1053H1461.81M1524.43 40.1053L1511.68 37.2099M1587.03 40.1053L1572.87 37.2099M1587.03 40.1053L1649.63 40.1044M1665.93 43.1373L1649.63 40.1044M1665.93 43.1373H1730.01M1499.51 34.441H1559.35M1499.51 34.441L1487.85 31.7934M1499.51 34.441L1439.67 34.442M1499.51 34.441L1511.68 37.2099M1559.35 34.441L1546.4 31.7934M1559.35 34.441L1572.87 37.2099M1559.35 34.441L1619.17 34.442M1487.85 31.7934H1546.4M1487.85 31.7934H1429.32M1487.85 31.7934L1476.71 29.258M1439.67 34.442L1429.32 31.7934M1439.67 34.442L1450.49 37.209M1511.68 37.2099H1572.87M1511.68 37.2099L1450.49 37.209M1546.4 31.7934L1534 29.258M1546.4 31.7934H1604.93M1572.87 37.2099H1634.05M1619.17 34.442L1604.93 31.7934M1619.17 34.442L1634.05 37.2099M1619.17 34.442H1679.01M1429.32 31.7934L1419.4 29.258M1476.71 29.258H1534M1476.71 29.258H1419.4M1476.71 29.258L1466.01 26.8275M1534 29.258L1522.12 26.8275M1534 29.258H1591.31M1604.93 31.7934L1591.31 29.258M1604.93 31.7934H1663.48M1455.76 24.4956H1510.72M1455.76 24.4956L1445.91 22.2559M1455.76 24.4956H1400.79M1455.76 24.4956L1466.01 26.8275M1510.72 24.4956L1499.79 22.2559M1510.72 24.4956L1522.12 26.8275M1510.72 24.4956H1565.69M1445.91 22.2559H1499.79M1445.91 22.2559H1392.03M1445.91 22.2559L1436.44 20.1049M1400.79 24.4956L1392.03 22.2559M1400.79 24.4956L1409.89 26.8275M1466.01 26.8275H1522.12M1466.01 26.8275H1409.89M1499.79 22.2559L1489.27 20.1049M1499.79 22.2559H1553.67M1522.12 26.8275H1578.24M1565.69 24.4956L1553.67 22.2559M1565.69 24.4956L1578.24 26.8275M1565.69 24.4956H1620.67M1392.03 22.2559L1383.61 20.1049M1436.44 20.1049H1489.27M1436.44 20.1049H1383.61M1436.44 20.1049L1427.33 18.0353M1489.27 20.1049L1480.4 18.2895L1479.15 18.0353M1489.27 20.1049H1542.09M1553.67 22.2559L1542.09 20.1049M1553.67 22.2559H1607.53M1418.57 16.0435H1469.41M1418.57 16.0435L1410.13 14.1259M1418.57 16.0435H1367.73M1418.57 16.0435L1420.73 16.5347L1421.83 16.7816L1427.33 18.0353M1469.41 16.0435L1460.04 14.1259M1469.41 16.0435L1479.15 18.0353M1469.41 16.0435H1520.25M1410.13 14.1259H1460.04M1410.13 14.1259H1360.24M1410.13 14.1259L1402 12.277M1367.73 16.0435L1360.24 14.1259M1367.73 16.0435L1375.52 18.0353M1427.33 18.0353H1479.15M1427.33 18.0353H1375.52M1460.04 14.1259L1451.01 12.277M1460.04 14.1259H1509.95M1479.15 18.0353H1530.97M1520.25 16.0435L1509.95 14.1259M1520.25 16.0435L1530.97 18.0353M1520.25 16.0435H1571.11M1360.24 14.1259L1353 12.277M1402 12.277H1451.01M1402 12.277H1353M1402 12.277L1394.16 10.4941M1451.01 12.277L1442.29 10.4941M1451.01 12.277H1500.01M1509.95 14.1259L1500.01 12.277M1509.95 14.1259H1559.85M1386.6 8.77366H1433.88M1386.6 8.77366L1379.28 7.11201M1386.6 8.77366H1339.31M1386.6 8.77366L1394.16 10.4941M1433.88 8.77366L1427.76 7.52177L1426.76 7.31644L1425.76 7.11201M1433.88 8.77366L1442.29 10.4941M1433.88 8.77366H1481.17M1379.28 7.11201H1425.76M1379.28 7.11201L1373.09 5.70454L1372.23 5.50645M1379.28 7.11201H1332.81M1339.31 8.77366L1332.81 7.11201M1339.31 8.77366L1346.04 10.4941M1394.16 10.4941H1442.29M1394.16 10.4941H1346.04M1425.76 7.11201H1472.24M1425.76 7.11201L1417.92 5.50645M1442.29 10.4941H1490.43M1481.17 8.77366L1472.24 7.11201M1481.17 8.77366L1490.43 10.4941M1481.17 8.77366H1528.45M1372.23 5.50645H1417.92M1372.23 5.50645H1326.53M1332.81 7.11201L1328.08 5.90264L1326.53 5.50645M1472.24 7.11201H1518.72M1472.24 7.11201L1463.61 5.50645M1417.92 5.50645H1463.61M1905.99 60.7461L1881.27 56.8566M1905.99 60.7461H1833.29M1905.99 60.7461L1920.48 63.0274M1905.99 60.7461H1920.48M1881.27 56.8566H1810.48M1881.27 56.8566L1857.81 53.1642M1881.27 56.8566L1920.48 56.8557M1833.29 60.7461L1810.48 56.8566M1833.29 60.7461L1857.37 64.851M1920.48 63.0274V60.7461M1920.48 63.0274V64.851M1920.48 60.7461V56.8557M1810.48 56.8566L1788.83 53.1642M1857.81 53.1642L1835.52 49.6555M1857.81 53.1642H1788.83M1857.81 53.1642H1920.48M1920.48 56.8557V53.1642M1814.31 46.3177H1879.95M1814.31 46.3177L1794.11 43.1373M1814.31 46.3177H1748.67M1814.31 46.3177L1835.52 49.6555M1879.95 46.3177L1858.19 43.1373M1879.95 46.3177L1902.79 49.6555M1879.95 46.3177H1920.48M1794.11 43.1373H1858.19M1794.11 43.1373H1730.01M1794.11 43.1373L1774.83 40.1053M1748.67 46.3177L1730.01 43.1373M1748.67 46.3177L1768.24 49.6555M1835.52 49.6555H1902.79M1835.52 49.6555H1768.24M1858.19 43.1373L1837.43 40.1053M1858.19 43.1373H1920.48M1902.79 49.6555L1920.48 52.2425M1902.79 49.6555H1920.48M1920.48 46.3177H1920.97M1920.48 46.3177V43.1373M1920.48 46.3177V49.6555M1730.01 43.1373L1712.23 40.1053M1774.83 40.1053H1837.43M1774.83 40.1053H1712.23M1774.83 40.1053L1756.43 37.2099M1837.43 40.1053L1817.61 37.2099M1837.43 40.1053H1900.04M1920.48 43.1373V42.894M1738.84 34.441H1798.68M1738.84 34.441L1722.01 31.7934M1738.84 34.441L1679.01 34.442M1738.84 34.441L1756.43 37.2099M1798.68 34.441L1780.56 31.7934M1798.68 34.441L1817.61 37.2099M1798.68 34.441L1858.51 34.442M1722.01 31.7934H1780.56M1722.01 31.7934H1663.48M1722.01 31.7934L1705.91 29.258M1679.01 34.442L1663.48 31.7934M1679.01 34.442L1695.24 37.209M1756.43 37.2099H1817.61M1756.43 37.2099L1695.24 37.209M1780.56 31.7934L1763.21 29.258M1780.56 31.7934H1839.09M1817.61 37.2099H1878.8M1858.51 34.442L1839.09 31.7934M1858.51 34.442L1878.8 37.2099M1858.51 34.442H1918.35M1663.48 31.7934L1648.6 29.258M1705.91 29.258H1763.21M1705.91 29.258H1648.6M1705.91 29.258L1690.47 26.8275M1763.21 29.258L1746.57 26.8275M1763.21 29.258H1820.51M1839.09 31.7934L1820.51 29.258M1839.09 31.7934H1897.64M1675.64 24.4956H1730.61M1675.64 24.4956L1661.41 22.2559M1675.64 24.4956H1620.67M1675.64 24.4956L1690.47 26.8275M1730.61 24.4956L1715.29 22.2559M1730.61 24.4956L1746.57 26.8275M1730.61 24.4956H1785.59M1661.41 22.2559H1715.29M1661.41 22.2559H1607.53M1661.41 22.2559L1647.75 20.1049M1620.67 24.4956L1607.53 22.2559M1620.67 24.4956L1634.35 26.8275M1690.47 26.8275H1746.57M1690.47 26.8275H1634.35M1715.29 22.2559L1700.57 20.1049M1715.29 22.2559H1769.17M1746.57 26.8275H1802.69M1785.59 24.4956L1769.17 22.2559M1785.59 24.4956L1802.69 26.8275M1785.59 24.4956H1840.56M1607.53 22.2559L1594.92 20.1049M1647.75 20.1049H1700.57M1647.75 20.1049H1594.92M1647.75 20.1049L1634.6 18.0353M1700.57 20.1049L1686.41 18.0353M1700.57 20.1049H1753.4M1769.17 22.2559L1753.4 20.1049M1769.17 22.2559H1823.05M1621.95 16.0435H1672.79M1621.95 16.0435L1609.76 14.1259M1621.95 16.0435H1571.11M1621.95 16.0435L1634.6 18.0353M1672.79 16.0435L1659.65 14.1259M1672.79 16.0435L1686.41 18.0353M1672.79 16.0435H1723.63M1609.76 14.1259H1659.65M1609.76 14.1259H1559.85M1609.76 14.1259L1598.01 12.277M1571.11 16.0435L1561.24 14.361L1559.85 14.1259M1571.11 16.0435L1582.79 18.0353M1634.6 18.0353H1686.41M1634.6 18.0353H1582.79M1659.65 14.1259L1647.01 12.277M1659.65 14.1259H1709.56M1686.41 18.0353H1738.23M1723.63 16.0435L1709.56 14.1259M1723.63 16.0435L1738.23 18.0353M1723.63 16.0435H1774.47M1559.85 14.1259L1549.01 12.277M1598.01 12.277H1647.01M1598.01 12.277H1549.01M1598.01 12.277L1586.68 10.4941M1647.01 12.277L1634.81 10.4941M1647.01 12.277H1696.01M1709.56 14.1259L1696.01 12.277M1709.56 14.1259H1759.47M1575.75 8.77366H1623.04M1575.75 8.77366L1565.19 7.11201M1575.75 8.77366H1528.45M1575.75 8.77366L1586.68 10.4941M1623.04 8.77366L1611.67 7.11201M1623.04 8.77366L1634.81 10.4941M1623.04 8.77366H1670.32M1565.19 7.11201H1611.67M1565.19 7.11201L1554.99 5.50645M1565.19 7.11201H1518.72M1528.45 8.77366L1518.72 7.11201M1528.45 8.77366L1538.55 10.4941M1586.68 10.4941H1634.81M1586.68 10.4941H1538.55M1611.67 7.11201H1658.15M1611.67 7.11201L1600.68 5.50645M1634.81 10.4941H1682.93M1670.32 8.77366L1658.15 7.11201M1670.32 8.77366L1682.93 10.4941M1670.32 8.77366H1717.61M1554.99 5.50645H1600.68M1554.99 5.50645H1509.29M1518.72 7.11201L1509.29 5.50645M1658.15 7.11201H1704.61M1658.15 7.11201L1646.37 5.50645M1600.68 5.50645H1646.37M1895.53 24.4956L1876.93 22.2559M1895.53 24.4956H1840.56M1895.53 24.4956L1914.91 26.8275M1895.53 24.4956H1920.48M1876.93 22.2559H1823.05M1876.93 22.2559L1859.05 20.1049M1876.93 22.2559H1920.48M1840.56 24.4956L1823.05 22.2559M1840.56 24.4956L1858.8 26.8275M1914.91 26.8275H1858.8M1914.91 26.8275H1920.48M1914.91 26.8275L1920.48 27.4968M1920.48 24.4956V22.2559M1920.48 24.4956V26.8275M1823.05 22.2559L1806.23 20.1049M1859.05 20.1049H1911.88M1859.05 20.1049H1806.23M1859.05 20.1049L1841.85 18.0353M1920.48 22.2559V21.0818M1825.31 16.0435H1876.15M1825.31 16.0435L1809.37 14.1259M1825.31 16.0435H1774.47M1825.31 16.0435L1841.85 18.0353M1876.15 16.0435L1859.28 14.1259M1876.15 16.0435L1893.67 18.0353M1876.15 16.0435H1920.48M1809.37 14.1259H1859.28M1809.37 14.1259H1759.47M1809.37 14.1259L1794.01 12.277M1774.47 16.0435L1759.47 14.1259M1774.47 16.0435L1790.04 18.0353M1841.85 18.0353H1893.67M1841.85 18.0353H1790.04M1859.28 14.1259L1843.01 12.277M1859.28 14.1259H1909.19M1893.67 18.0353L1911.88 20.1049M1893.67 18.0353H1920.48M1920.48 16.0435H1920.64M1920.48 16.0435V15.3425M1920.48 16.0435V18.0353M1759.47 14.1259L1745.01 12.277M1794.01 12.277H1843.01M1794.01 12.277H1745.01M1794.01 12.277L1779.2 10.4941M1843.01 12.277L1827.32 10.4941M1843.01 12.277H1892.01M1909.19 14.1259L1892.01 12.277M1909.19 14.1259L1920.48 15.3425M1909.19 14.1259H1920.48M1764.91 8.77366H1812.19M1764.91 8.77366L1751.09 7.11201M1764.91 8.77366H1717.61M1764.91 8.77366L1779.2 10.4941M1812.19 8.77366L1797.57 7.11201M1812.19 8.77366L1827.32 10.4941M1812.19 8.77366H1859.48M1751.09 7.11201H1797.57M1751.09 7.11201L1737.76 5.50645M1751.09 7.11201H1704.61M1717.61 8.77366L1704.61 7.11201M1717.61 8.77366L1731.07 10.4941M1779.2 10.4941H1827.32M1779.2 10.4941H1731.07M1797.57 7.11201H1844.05M1797.57 7.11201L1783.45 5.50645M1827.32 10.4941H1875.45M1859.48 8.77366L1844.05 7.11201M1859.48 8.77366L1875.45 10.4941M1859.48 8.77366H1906.76M1737.76 5.50645H1783.45M1737.76 5.50645H1692.07M1704.61 7.11201L1692.07 5.50645M1844.05 7.11201H1890.52M1844.05 7.11201L1829.13 5.50645M1783.45 5.50645H1829.13M1875.45 10.4941L1892.01 12.277M1875.45 10.4941H1920.48M1906.76 8.77366L1890.52 7.11201M1906.76 8.77366L1920.48 10.1766M1906.76 8.77366H1920.48M1890.52 7.11201L1874.83 5.50645M1890.52 7.11201H1920.48M1829.13 5.50645H1874.83M1829.13 5.50645L1814.72 3.95425M1892.01 12.277H1920.48M1920.48 10.4941V10.1766M1920.48 10.4941V12.277M1920.48 10.1766V8.77366M1920.48 8.77366V7.11201M1874.83 5.50645L1859.65 3.95425M1874.83 5.50645H1920.48M1920.48 7.11201V5.50645M1814.72 3.95425H1859.65M1920.48 5.50645H1920.52L1920.48 5.50283M1920.48 5.50645V5.50283M1920.48 15.3425V14.1259M1920.48 14.1259V12.277M1745.01 12.277L1731.07 10.4941M1745.01 12.277H1696.01M1731.07 10.4941H1682.93M1911.88 20.1049L1920.48 21.0818M1911.88 20.1049H1920.48M1920.48 18.0353V20.1049M1920.48 21.0818V20.1049M1806.23 20.1049L1790.04 18.0353M1806.23 20.1049H1753.4M1790.04 18.0353H1738.23M1682.93 10.4941L1696.01 12.277M1646.37 5.50645H1692.07M1646.37 5.50645L1635 3.95425M1692.07 5.50645L1679.93 3.95425M1635 3.95425H1679.93M1549.01 12.277L1538.55 10.4941M1549.01 12.277H1500.01M1538.55 10.4941H1490.43M1738.23 18.0353L1753.4 20.1049M1594.92 20.1049L1582.79 18.0353M1594.92 20.1049H1542.09M1582.79 18.0353H1530.97M1802.69 26.8275L1820.51 29.258M1802.69 26.8275H1858.8M1858.8 26.8275L1877.81 29.258M1820.51 29.258H1877.81M1877.81 29.258L1897.64 31.7934M1877.81 29.258H1920.48M1920.48 26.8275V27.4968M1920.48 27.4968V29.258M1897.64 31.7934L1918.35 34.442M1897.64 31.7934H1920.48M1648.6 29.258L1634.35 26.8275M1648.6 29.258H1591.31M1920.48 29.258H1920.79M1920.48 29.258V31.7934M1634.35 26.8275H1578.24M1878.8 37.2099L1900.04 40.1053M1878.8 37.2099L1920.48 37.209M1918.35 34.442L1920.48 34.7151M1918.35 34.442L1920.48 34.441M1920.48 31.7934V34.4429V34.7151M1920.48 34.7151L1921 34.7812M1920.48 34.7151V37.209M1900.04 40.1053H1920.48M1900.04 40.1053L1920.48 42.894M1920.48 37.209V40.1053M1920.48 40.1053V42.894M1712.23 40.1053L1695.24 37.209M1712.23 40.1053L1649.63 40.1044M1695.24 37.209L1634.05 37.2099M1920.48 52.2425L1920.68 52.2705M1920.48 52.2425V49.6555M1920.48 52.2425V53.1642M1768.24 49.6555H1700.97M1768.24 49.6555L1788.83 53.1642M1490.43 10.4941L1500.01 12.277M1463.61 5.50645H1509.29M1463.61 5.50645L1455.27 3.95425M1509.29 5.50645L1508.15 5.30925L1505.85 4.91849L1500.2 3.95425M1455.27 3.95425H1500.2M1353 12.277L1346.04 10.4941M1353 12.277H1304.01M1346.04 10.4941H1297.91M1530.97 18.0353L1542.09 20.1049M1383.61 20.1049L1375.52 18.0353M1383.61 20.1049H1330.79M1375.52 18.0353H1323.71M1578.24 26.8275L1591.31 29.258M1419.4 29.258L1409.89 26.8275M1419.4 29.258H1362.11M1409.89 26.8275H1353.79M1634.05 37.2099L1649.63 40.1044M1461.81 40.1053L1450.49 37.209M1461.81 40.1053L1399.21 40.1044M1450.49 37.209L1389.31 37.2099M1700.97 49.6555L1719.84 53.1642M1719.84 53.1642H1788.83M1512.88 53.1642L1499.16 49.6564M1512.88 53.1642H1443.89M1499.16 49.6564L1431.89 49.6555M1782.67 64.851L1806 69.1883M1782.67 64.851H1857.37M1857.37 64.851L1882.81 69.1883M1857.37 64.851H1920.48M1806 69.1883H1882.81M1882.81 69.1883L1909.75 73.7797M1882.81 69.1883H1920.48M1920.48 64.851V69.1883M1909.75 73.7797L1920.48 73.7806M1909.75 73.7797L1920.48 75.6114M1575.55 69.1883L1558.57 64.851M1575.55 69.1883H1498.72M1920.48 69.1883V73.7806M1558.57 64.851H1483.88M1884.64 83.8175L1914.21 89.318M1884.64 83.8175L1920.48 83.8184M1920.48 78.6471V75.6114M1920.48 78.6471V83.8184M1920.48 73.7806V75.6114M1914.21 89.318L1920.48 90.4831M1914.21 89.318H1920.48M1920.48 83.8184V89.318M1920.48 90.4831V89.318M1654.25 89.318L1632.75 83.8184M1654.25 89.318H1567.6M1632.75 83.8184L1612.53 78.6471M1632.75 83.8184L1548.77 83.8175M1920.48 108.159V108.329M1920.48 108.329V115.362M1727.92 108.159H1632.05M1727.92 108.159L1756.08 115.362M1297.91 10.4941L1299.41 10.9337L1304.01 12.277M1280.84 5.50645H1326.53M1280.84 5.50645L1275.53 3.95425M1326.53 5.50645L1324.23 4.91849L1320.46 3.95425M1275.53 3.95425H1320.46M1157 12.277L1156.12 11.8247L1153.52 10.4941M1157 12.277H1108M1153.52 10.4941H1105.39M1323.71 18.0353L1330.79 20.1049M1172.31 20.1049L1171.79 19.8417L1171.28 19.5794L1168.26 18.0353M1172.31 20.1049H1119.48M1168.26 18.0353H1116.45M1353.79 26.8275L1362.11 29.258M1190.2 29.258L1185.45 26.8275M1190.2 29.258L1132.9 29.2571M1185.45 26.8275L1129.34 26.8266M1389.31 37.2099L1399.21 40.1044M1211.41 40.1053L1205.75 37.209M1211.41 40.1053L1148.81 40.1044M1205.75 37.209L1144.56 37.208M1431.89 49.6555L1443.89 53.1642M1236.94 53.1642L1230.08 49.6555M1236.94 53.1642H1167.96M1230.08 49.6555H1162.81M1483.88 64.851L1498.72 69.1883M1268.27 69.1883L1259.79 64.851M1268.27 69.1883H1191.45M1259.79 64.851H1185.09M1548.77 83.8175L1567.6 89.318M1307.63 89.318L1296.87 83.8193L1212.9 83.8184M1307.63 89.318L1220.97 89.3189M1632.05 108.159L1656.69 115.362M1656.69 115.362H1756.08M1358.55 115.362L1344.47 108.159M1358.55 115.362H1259.16M1344.47 108.159H1248.59M1742.83 140.536L1776.49 150.373M1742.83 140.536H1854.52M1819.11 131.48L1854.52 140.536M1819.11 131.48H1920.48M1854.52 140.536L1892.99 150.373M1854.52 140.536H1920.48M1920.48 131.48V140.536M1776.49 150.373H1892.99M1892.99 150.373H1920.48M1892.99 150.373L1920.48 157.405M1920.48 140.536V150.373M1920.48 161.095V157.405M1920.48 161.095V172.826M1426.99 150.373L1407.76 140.536M1426.99 150.373H1310.49M1920.48 150.373V157.405M1407.76 140.536H1296.07M1897.41 185.717L1920.48 192.46M1897.41 185.717H1920.48M1920.48 172.826V185.717M1805.37 199.949H1664.65M1805.37 199.949H1920.48M1920.48 192.46V185.717M1920.48 192.46V199.949M1664.65 199.949H1523.92M1920.48 199.949V200H1.51733V199.949M1523.92 199.949L1496.09 185.717M1523.92 199.949H1383.19M1496.09 185.717H1362.32M1105.39 10.4941L1105.71 10.713L1106.03 10.9337L1106.36 11.1553L1106.68 11.3778L1108 12.277M1098.07 5.50645L1097.79 5.30925L1097.21 4.91849L1096.64 4.53044L1096.36 4.33777L1095.8 3.95425M1098.07 5.50645H1143.77M1143.77 5.50645L1141.11 4.14601L1140.73 3.95425M1095.8 3.95425H1140.73M961 12.277V10.4941M961 12.277H912M961 10.4941H912.871M1116.45 18.0353L1119.48 20.1049M961 20.1049V18.0344M961 20.1049H908.173M961 18.0344L909.185 18.0353M1129.34 26.8266L1132.9 29.2571M961 29.2571V26.8266M961 29.2571H903.7M961 26.8266H904.887M1144.56 37.208H1083.37M1144.56 37.208L1148.81 40.1044M1140.5 34.4401H1200.34M961 40.1044V37.209M961 40.1044H898.397M961 37.209L899.813 37.2099M1162.81 49.6555L1167.96 53.1642M961 53.1642V49.6555M961 53.1642H892.015M961 49.6555H893.729M1185.09 64.851L1191.45 69.1883M961 69.1883V64.8519M961 69.1883H884.183M961 64.8519L886.303 64.851M1212.9 83.8184L1220.97 89.3189M961 89.3189V83.8193L877.032 83.8184M961 89.3189H874.344M1248.59 108.159L1259.16 115.362M961 115.362V108.159M961 115.362H861.615M961 108.159H865.135M1296.07 140.536L1310.49 150.373M961 150.373V140.536M961 150.373H844.501M961 140.536H849.309M1362.32 185.717L1383.19 199.949M1242.46 199.949H1383.19M1242.46 199.949H1101.73M1101.73 199.949H961M961 199.949V185.717M961 199.949H820.269M961 185.717H827.227M912.871 10.4941L912.763 10.713L912.656 10.9337L912.547 11.1553L912 12.277M915.309 5.50645L961 5.50735M915.309 5.50645L915.596 4.9194L915.692 4.72492L916.067 3.95605M961 5.50735V3.95425M916.067 3.95605L961 3.95425M764.997 12.277L765.88 11.8247L768.483 10.4941M764.997 12.277H715.997M768.483 10.4941H720.353M909.185 18.0353L908.173 20.1049M749.693 20.1049L753.74 18.0344M749.693 20.1049L696.867 20.104M753.74 18.0344L701.924 18.0353M904.887 26.8266L904.596 27.4236L904.001 28.6393L903.7 29.2571M731.799 29.2571L736.549 26.8275M731.799 29.2571H674.497M736.549 26.8275L680.439 26.8266M899.813 37.2099L898.397 40.1044M710.591 40.1053L716.252 37.209M710.591 40.1053L647.988 40.1044M716.252 37.209L655.065 37.208M893.729 49.6555L892.015 53.1642M685.059 53.1642L691.917 49.6555M685.059 53.1642H616.073M691.917 49.6555H624.647M886.303 64.851L884.183 69.1883M653.729 69.1883L662.209 64.8519M653.729 69.1883H576.912M662.209 64.8519L587.513 64.851M877.032 83.8184L874.344 89.3189M614.375 89.3189L625.129 83.8193L541.161 83.8184M614.375 89.3189H527.719M865.135 108.159L861.615 115.362M563.459 115.362L577.54 108.159M563.459 115.362H464.072M577.54 108.159H481.675M849.309 140.536L844.501 150.373M495.007 150.373L514.239 140.536M495.007 150.373H378.509M514.239 140.536H402.548M827.227 185.717L820.269 199.949M679.54 199.949H820.269M679.54 199.949H538.811M538.811 199.949H398.08M398.08 199.949L425.905 185.717M398.08 199.949H257.351M425.905 185.717H292.132M720.353 10.4941L715.997 12.277M732.543 5.50645H778.233M732.543 5.50645L735.399 4.33777L736.335 3.95425M778.233 5.50645L778.619 5.30925L779.384 4.91849L781.268 3.95425M736.335 3.95425H781.268M568.995 12.277L575.965 10.4941M568.995 12.277H519.993M575.965 10.4941H527.836M701.924 18.0353L696.867 20.104M538.388 20.1049L545.485 18.2895L546.479 18.0344M538.388 20.1049H485.561M546.479 18.0344L494.663 18.0353M680.439 26.8266L674.497 29.2571M502.596 29.2571L512.101 26.8266M502.596 29.2571L445.296 29.258M512.101 26.8266L455.988 26.8275M655.065 37.208H593.879M655.065 37.208L647.988 40.1044M661.829 34.4401H721.663M460.181 40.1044L471.504 37.209M460.181 40.1044H397.58M471.504 37.209L410.317 37.2099M624.647 49.6555L616.073 53.1642M409.119 53.1642L422.836 49.6555M409.119 53.1642H340.132M422.836 49.6555H355.565M587.513 64.851L576.912 69.1883M346.459 69.1883L363.421 64.8519M346.459 69.1883H269.641M363.421 64.8519L288.723 64.851M541.161 83.8184L527.719 89.3189M267.749 89.3189L289.257 83.8193L205.289 83.8184M267.749 89.3189H181.093M481.675 108.159L464.072 115.362M165.916 115.362L194.079 108.159M165.916 115.362H66.5293M194.079 108.159H98.2147M402.548 140.536L378.509 150.373M29.0133 150.373L67.4773 140.536M29.0133 150.373H1.51733M29.0133 150.373L1.51733 157.405M67.4773 140.536H1.51733M292.132 185.717L257.351 199.949M116.621 199.949H257.351M116.621 199.949H1.51733M1.51733 199.949V192.46M1.51733 192.46V185.717M527.836 10.4941L519.993 12.277M549.776 5.50645L550.643 5.30925L556.604 3.95425M549.776 5.50645H595.468M595.468 5.50645L597.768 4.91849L601.537 3.95425M556.604 3.95425H601.537M372.992 12.277L383.449 10.4941M372.992 12.277H323.991M383.449 10.4941H335.32M494.663 18.0353L485.561 20.1049M327.081 20.1049L339.217 18.0353M327.081 20.1049H274.255M339.217 18.0353H287.403M455.988 26.8275L445.296 29.258M273.395 29.258L287.651 26.8275M273.395 29.258H216.095M287.651 26.8275H231.539M410.317 37.2099L397.58 40.1044M209.772 40.1053L226.756 37.209M209.772 40.1053L147.171 40.1044M226.756 37.209L165.569 37.2099M355.565 49.6555L340.132 53.1642M133.177 53.1642L153.753 49.6573H86.484M133.177 53.1642L64.1907 53.1651M133.177 53.1642L111.524 56.8557H40.7333M288.723 64.851L269.641 69.1883M116.005 69.1883H39.1893M116.008 69.1883L139.329 64.851M346.46 69.1883L328.507 73.7797M64.6307 64.8519L39.188 69.1892M64.6307 64.8519H1.51733M205.289 83.8184L121.323 83.8193H37.3547M205.289 83.8184L181.093 89.3189M7.78 89.3189L37.3533 83.8193M7.78 89.3189H1.51733M7.78 89.3189L1.51733 90.4831M127.731 101.45L98.2147 108.159M1.51733 89.3189V90.4831M1.51733 89.3189V83.8175M98.2147 108.159L66.5293 115.362M1.51733 108.159V108.329M1.51733 108.329V115.362V123.113M66.5293 115.362L32.4307 123.113M66.5293 115.362H1.516M32.4307 123.113H1.51733M32.4307 123.113L1.51733 130.14M1.51733 123.113V130.14M1.51733 130.14V131.48M1.51733 131.48V140.536M1.51733 140.536V150.373M1.51733 150.373V157.405M335.32 10.4941L323.991 12.277M367.009 5.50645L368.26 5.30925L376.872 3.95425M367.009 5.50645H412.701M412.701 5.50645L413.856 5.30925L421.804 3.95425M376.872 3.95425H421.804M176.989 12.277L190.932 10.4941M176.989 12.277H127.988M190.932 10.4941L142.803 10.495M287.403 18.0353L274.255 20.1049M115.775 20.1049L131.957 18.0344L80.1427 18.0353L96.6907 16.0435L112.628 14.1259M115.775 20.1049L62.9493 20.104M231.539 26.8275L216.095 29.258M44.1933 29.258L63.2013 26.8275M44.1933 29.258H1.51733M63.2013 26.8275H7.08933M165.569 37.2099L147.171 40.1044M43.1973 37.209H1.516M86.4827 49.6555L64.1907 53.1651M1.51733 52.2425V53.1642M64.1907 53.1651L40.7333 56.8557M64.1907 53.1651L1.51733 53.1642M40.7333 56.8557L16.016 60.7452M40.7333 56.8557H1.51733M16.016 60.7452H1.51733M16.016 60.7452L1.51733 63.0283M1.51733 53.1642V56.8575V60.747V63.0283M1.32 52.2696L1.516 52.2425M1.51733 63.0283V64.8519M39.188 69.1892L1.51733 69.1901M1.51733 64.8519V69.1883V73.7797M1.51733 73.7797H12.2587L1.51733 75.6123M142.803 10.495L127.989 12.2779M184.244 5.50735H229.935M184.244 5.50735L197.14 3.95515M92.86 5.50735L47.1693 5.50645M229.935 5.50735L242.073 3.95515M197.14 3.95515H242.073M127.988 12.277L112.628 14.1259M29.988 12.277H1.51867M1.51733 10.4941V10.1766M28.3293 18.0353L10.1227 20.104M10.1227 20.104H62.9493M10.1227 20.104L1.51733 21.0809M10.1227 20.104H1.51733M1.516 18.0344H28.328H80.1413L62.9493 20.104M62.9493 20.104L45.0707 22.255M26.4667 24.4956L45.0693 22.255L1.51733 22.2559M26.4667 24.4956L7.08933 26.8275M26.4667 24.4956H1.51733M1.51733 22.2559V24.4956M1.51733 22.2559V21.0827V20.104M7.08933 26.8275L1.51467 27.4968M7.08933 26.8275H1.516M1.51733 24.4956V26.8275V27.4978V29.258M1.51733 31.7934V34.441M1.51733 31.7934V29.258M1.51733 29.258H1.21733M1.51733 34.441V34.7151M1.51733 34.7151L1 34.7812M1.51733 8.77366V10.1766M1.51733 8.77366V7.11201L1.51867 5.50645M47.1693 5.50645L62.3413 3.95425L17.408 3.95515M47.1693 5.50645H1.51867M1.51867 5.50645H1.47733L1.51733 5.50283M1.51867 5.50645L1.51733 5.50283M17.408 3.95515L1.51733 5.50283M17.408 3.95515L1.51733 3.95425M1.51733 5.50283V3.95425M1920.48 5.50283V3.95425" stroke="url(#paint0_linear_228_131)" stroke-width="1.889" stroke-miterlimit="10" stroke-linecap="round" stroke-linejoin="round"/>
<defs>
<linearGradient id="paint0_linear_228_131" x1="961" y1="200" x2="961" y2="1" gradientUnits="userSpaceOnUse">
<stop stop-opacity="0"/>
<stop offset="0.375" stop-opacity="0.08"/>
<stop offset="0.73" stop-opacity="0.08"/>
<stop offset="1" stop-opacity="0"/>
</linearGradient>
</defs>
</svg>
